<svg version="1.1" id="Слой_1" xmlns="http://www.w3.org/2000/svg" xmlns:xlink="http://www.w3.org/1999/xlink" x="0" y="0" viewBox="0 0 480.1 817" xml:space="preserve"><style>.st0{fill:#0098ff}.st2{fill:#fff}</style><switch><g><path class="st0" d="M54.8 702.9h425.3c.3 24.3-.1 44.2 0 59.2.1 40.7-12.1 54.9-48.1 54.9H48C20.3 817 0 804.4.1 762.3V703h54.7zm0 0"/><path d="M55.6.9h369c44 0 54.5 10.5 54.5 54.7V702H1.1V55.5C1.1 11.4 11.5.9 55.6.9h0zm-.3 0" fill="#fff" stroke="#ccc" stroke-width="2" stroke-miterlimit="10"/><path d="M126.8 180.1h-10.7V200h-4.7v-24.4h15.3v4.5zm8.1 4.8h5.6c1.2 0 2.2.2 3.2.6 1 .4 1.8.9 2.5 1.6.7.7 1.2 1.5 1.6 2.4.4.9.6 1.9.6 3s-.2 2-.6 3c-.4.9-.9 1.7-1.6 2.4-.7.7-1.5 1.2-2.5 1.6-1 .4-2 .6-3.2.6h-10.3v-24.4h16.5v4.5h-11.8v4.7zm5.7 4.3H135v6.6h5.6c1 0 1.7-.3 2.4-.9.6-.6.9-1.4.9-2.4s-.3-1.8-.9-2.4c-.7-.6-1.5-.9-2.4-.9zm15.4-1.3c0 1.2.2 2.2.6 3.2.4 1 .9 1.8 1.6 2.5.6.7 1.4 1.2 2.3 1.6.9.4 1.8.6 2.7.6 1 0 1.9-.2 2.7-.6.9-.4 1.6-.9 2.3-1.6.6-.7 1.2-1.6 1.5-2.5.4-1 .6-2.1.6-3.2 0-1.2-.2-2.2-.6-3.2-.4-1-.9-1.8-1.5-2.5-.7-.7-1.4-1.3-2.3-1.6-.9-.4-1.8-.6-2.7-.6-.9 0-1.9.2-2.7.6-.9.4-1.7.9-2.3 1.6-.7.7-1.2 1.6-1.6 2.5-.4.9-.6 2-.6 3.2zm19 0c0 1.7-.3 3.3-.9 4.9-.6 1.5-1.5 2.8-2.6 4-1.1 1.1-2.3 2-3.7 2.6-1.4.6-3 .9-4.6.9-1.6 0-3.1-.3-4.5-.9-1.4-.6-2.7-1.5-3.8-2.6-1.1-1.1-1.9-2.5-2.6-4-.6-1.5-.9-3.1-.9-4.9 0-1.7.3-3.4.9-4.9.6-1.5 1.5-2.8 2.6-3.9s2.3-2 3.8-2.6c1.4-.6 2.9-1 4.5-1s3.1.3 4.6 1c1.4.6 2.7 1.5 3.7 2.6 1.1 1.1 1.9 2.4 2.6 3.9.6 1.5.9 3.1.9 4.9zm17.2-12.3h4.7l-8.3 18.6c-.5 1.1-1 2-1.4 2.7-.5.8-1 1.4-1.5 2-.6.5-1.1.9-1.8 1.1-.7.3-1.4.4-2.2.4-.3 0-.6 0-.9-.1-.3 0-.5-.1-.8-.1-.3-.1-.5-.2-.7-.2v-4c.1 0 .2.1.4.1.1 0 .3 0 .5.1h.7c.8 0 1.4-.2 1.9-.6.5-.4.9-.9 1.2-1.5l.4-1-7.9-17.4h4.8l5.6 12.2 5.3-12.3zm19.9 12.3c0 1.2.2 2.2.6 3.2.4 1 .9 1.8 1.6 2.5.6.7 1.4 1.2 2.3 1.6.9.4 1.8.6 2.7.6.8 0 1.6-.1 2.3-.3.7-.3 1.3-.6 1.8-1s1-.9 1.3-1.4c.4-.5.6-1.1.8-1.6h4.9c-.3 1.2-.8 2.3-1.4 3.3-.6 1.1-1.4 2-2.4 2.8-.9.8-2 1.4-3.2 1.9-1.2.5-2.6.7-4 .7-1.6 0-3.1-.3-4.5-.9-1.4-.6-2.7-1.5-3.8-2.6-1.1-1.1-1.9-2.5-2.6-4-.6-1.5-.9-3.1-.9-4.9 0-1.7.3-3.4.9-4.9.6-1.5 1.5-2.8 2.6-3.9s2.3-2 3.8-2.6c1.4-.6 2.9-1 4.5-1 1.4 0 2.7.2 3.9.7 1.2.5 2.3 1.1 3.2 1.9.9.8 1.7 1.8 2.3 2.8.6 1.1 1.1 2.2 1.4 3.3h-4.8c-.1-.5-.4-1-.7-1.5-.3-.5-.8-1-1.3-1.4-.5-.4-1.1-.7-1.8-1-.7-.3-1.4-.4-2.3-.4-.9 0-1.9.2-2.7.6-.9.4-1.7.9-2.3 1.6-.7.7-1.2 1.6-1.6 2.5-.4 1.1-.6 2.2-.6 3.4zm25.2 0c0 1.2.2 2.2.6 3.2.4 1 .9 1.8 1.6 2.5.6.7 1.4 1.2 2.3 1.6.9.4 1.8.6 2.7.6 1 0 1.9-.2 2.7-.6.9-.4 1.6-.9 2.3-1.6.6-.7 1.2-1.6 1.5-2.5.4-1 .6-2.1.6-3.2 0-1.2-.2-2.2-.6-3.2-.4-1-.9-1.8-1.5-2.5-.7-.7-1.4-1.3-2.3-1.6-.9-.4-1.8-.6-2.7-.6-.9 0-1.9.2-2.7.6-.9.4-1.7.9-2.3 1.6-.7.7-1.2 1.6-1.6 2.5-.4.9-.6 2-.6 3.2zm19 0c0 1.7-.3 3.3-.9 4.9-.6 1.5-1.5 2.8-2.6 4-1.1 1.1-2.3 2-3.7 2.6-1.4.6-3 .9-4.6.9-1.6 0-3.1-.3-4.5-.9-1.4-.6-2.7-1.5-3.8-2.6-1.1-1.1-1.9-2.5-2.6-4-.6-1.5-.9-3.1-.9-4.9 0-1.7.3-3.4.9-4.9.6-1.5 1.5-2.8 2.6-3.9s2.3-2 3.8-2.6c1.4-.6 2.9-1 4.5-1s3.1.3 4.6 1c1.4.6 2.7 1.5 3.7 2.6 1.1 1.1 1.9 2.4 2.6 3.9.6 1.5.9 3.1.9 4.9zm28-12.3h4.6V200h-28.3v-24.4h4.7v20h7.2v-20h4.7v20h7.2v-20zm19 6.6h16.1V200h-4.5v-13.5h-7.2V200h-4.5v-17.8zm24.3 8.9c0 1.5.4 2.6 1.3 3.5.9.9 1.9 1.3 3.2 1.3.6 0 1.2-.1 1.7-.3.5-.2 1-.6 1.4-1 .4-.4.7-.9.9-1.5.2-.6.3-1.3.3-2s-.1-1.4-.3-2c-.2-.6-.5-1.1-.9-1.5-.4-.4-.9-.8-1.4-1-.6-.2-1.1-.3-1.7-.3-1.3 0-2.4.4-3.2 1.3-.9.9-1.3 2.1-1.3 3.5zm13.4 0c0 1.3-.2 2.4-.7 3.6-.5 1.1-1.1 2.1-2 2.9-.8.8-1.7 1.5-2.8 2-1.1.5-2.2.7-3.4.7-1.2 0-2.4-.2-3.4-.7-1.1-.5-2-1.1-2.8-2-.8-.8-1.4-1.8-1.9-2.9-.5-1.1-.7-2.3-.7-3.6 0-1.3.2-2.4.7-3.5.5-1.1 1.1-2.1 1.9-2.9.8-.8 1.8-1.5 2.8-2 1.1-.5 2.2-.7 3.4-.7 1.2 0 2.4.2 3.4.7 1.1.5 2 1.1 2.8 2 .8.8 1.5 1.8 2 2.9.5 1.1.7 2.3.7 3.5zm15.6 2.4h4.4c-.2.9-.6 1.7-1 2.6-.5.8-1.1 1.5-1.8 2.2-.7.6-1.5 1.1-2.5 1.5-.9.4-1.9.6-3 .6-1.2 0-2.4-.2-3.4-.7-1.1-.5-2-1.1-2.8-2-.8-.8-1.4-1.8-1.9-2.9-.5-1.1-.7-2.3-.7-3.6 0-1.3.2-2.4.7-3.5.5-1.1 1.1-2.1 1.9-2.9.8-.8 1.8-1.5 2.8-2 1.1-.5 2.2-.7 3.4-.7 1.1 0 2.1.2 3 .6.9.4 1.7.9 2.5 1.5.7.6 1.3 1.4 1.8 2.2.5.8.8 1.6 1 2.5h-4.4c-.2-.5-.5-.9-.8-1.3-.3-.3-.7-.6-1.2-.8-.5-.3-1.1-.4-1.8-.4-1.3 0-2.4.4-3.2 1.3-.8.9-1.3 2-1.3 3.5s.4 2.6 1.3 3.5c.9.9 1.9 1.3 3.2 1.3.7 0 1.3-.1 1.8-.4.5-.3.9-.6 1.2-.9.3-.3.6-.8.8-1.2zm7.2 4.2c0-.7.2-1.2.7-1.7.5-.5 1.1-.8 1.8-.8s1.3.3 1.8.8.7 1.1.7 1.7c0 .7-.2 1.3-.7 1.8-.5.5-1.1.8-1.8.8s-1.3-.3-1.8-.8c-.4-.5-.7-1.1-.7-1.8zm-237.2 41.8h-5.4l-8.7-11v11h-4.7v-24.4h4.7V226l8.1-10.9h5.4l-9.1 12 9.7 12.4zm5.3-8.9c0 1.5.4 2.6 1.3 3.5.9.9 1.9 1.3 3.2 1.3.6 0 1.2-.1 1.7-.3.5-.2 1-.6 1.4-1 .4-.4.7-.9.9-1.5.2-.6.3-1.3.3-2s-.1-1.4-.3-2c-.2-.6-.5-1.1-.9-1.5-.4-.4-.9-.8-1.4-1-.6-.2-1.1-.3-1.7-.3-1.3 0-2.4.4-3.2 1.3-.9.9-1.3 2.1-1.3 3.5zm13.4 0c0 1.3-.2 2.4-.7 3.6-.5 1.1-1.1 2.1-2 2.9-.8.8-1.7 1.5-2.8 2-1.1.5-2.2.7-3.4.7-1.2 0-2.4-.2-3.4-.7-1.1-.5-2-1.1-2.8-2-.8-.8-1.4-1.8-1.9-2.9-.5-1.1-.7-2.3-.7-3.6 0-1.3.2-2.4.7-3.5.5-1.1 1.1-2.1 1.9-2.9.8-.8 1.8-1.5 2.8-2 1.1-.5 2.2-.7 3.4-.7 1.2 0 2.4.2 3.4.7 1.1.5 2 1.1 2.8 2 .8.8 1.5 1.8 2 2.9.5 1.1.7 2.3.7 3.5zm14.8 8.9h-2.3l-4.3-9.1v9.1H149v-17.8h4.3l5.6 12 5.6-12h4.3v17.8h-4.4v-9.1l-4.3 9.1zm25.4-6.5h4.4c-.2.9-.6 1.7-1 2.6-.5.8-1.1 1.5-1.8 2.2-.7.6-1.5 1.1-2.5 1.5-.9.4-1.9.6-3 .6-1.2 0-2.4-.2-3.4-.7-1.1-.5-2-1.1-2.8-2-.8-.8-1.4-1.8-1.9-2.9-.5-1.1-.7-2.3-.7-3.6 0-1.3.2-2.4.7-3.5.5-1.1 1.1-2.1 1.9-2.9.8-.8 1.8-1.5 2.8-2 1.1-.5 2.2-.7 3.4-.7 1.1 0 2.1.2 3 .6.9.4 1.7.9 2.5 1.5.7.6 1.3 1.4 1.8 2.2.5.8.8 1.6 1 2.5h-4.4c-.2-.5-.5-.9-.9-1.3-.3-.3-.7-.6-1.2-.9-.5-.3-1.1-.4-1.8-.4-1.3 0-2.4.4-3.2 1.3-.8.9-1.3 2-1.3 3.5s.4 2.6 1.3 3.5c.9.9 1.9 1.3 3.2 1.3.7 0 1.3-.1 1.8-.4.5-.3.9-.6 1.2-.9.4-.3.7-.7.9-1.1zm11.1-2.4c0 1.5.4 2.6 1.3 3.5.9.9 1.9 1.3 3.2 1.3.6 0 1.2-.1 1.7-.3.5-.2 1-.6 1.4-1 .4-.4.7-.9.9-1.5.2-.6.3-1.3.3-2s-.1-1.4-.3-2c-.2-.6-.5-1.1-.9-1.5-.4-.4-.9-.8-1.4-1-.6-.2-1.1-.3-1.7-.3-1.3 0-2.4.4-3.2 1.3-.8.9-1.3 2.1-1.3 3.5zm13.4 0c0 1.3-.2 2.4-.7 3.6-.5 1.1-1.1 2.1-2 2.9-.8.8-1.7 1.5-2.8 2-1.1.5-2.2.7-3.4.7-1.2 0-2.4-.2-3.4-.7-1.1-.5-2-1.1-2.8-2-.8-.8-1.4-1.8-1.9-2.9-.5-1.1-.7-2.3-.7-3.6 0-1.3.2-2.4.7-3.5.5-1.1 1.1-2.1 1.9-2.9.8-.8 1.8-1.5 2.8-2 1.1-.5 2.2-.7 3.4-.7 1.2 0 2.4.2 3.4.7 1.1.5 2 1.1 2.8 2 .8.8 1.5 1.8 2 2.9.5 1.1.7 2.3.7 3.5zm14.8 8.9h-2.3l-4.3-9.1v9.1h-4.5v-17.8h4.3l5.6 12 5.6-12h4.3v17.8h-4.4v-9.1l-4.3 9.1zm17.1-8.9c0 1.5.4 2.6 1.3 3.5.9.9 1.9 1.3 3.2 1.3.6 0 1.2-.1 1.7-.3.5-.2 1-.6 1.4-1 .4-.4.7-.9.9-1.5.2-.6.3-1.3.3-2s-.1-1.4-.3-2c-.2-.6-.5-1.1-.9-1.5-.4-.4-.9-.8-1.4-1-.6-.2-1.1-.3-1.7-.3-1.3 0-2.4.4-3.2 1.3-.9.9-1.3 2.1-1.3 3.5zm13.4 0c0 1.3-.2 2.4-.7 3.6-.5 1.1-1.1 2.1-2 2.9-.8.8-1.7 1.5-2.8 2-1.1.5-2.2.7-3.4.7-1.2 0-2.4-.2-3.4-.7-1.1-.5-2-1.1-2.8-2-.8-.8-1.4-1.8-1.9-2.9-.5-1.1-.7-2.3-.7-3.6 0-1.3.2-2.4.7-3.5.5-1.1 1.1-2.1 1.9-2.9.8-.8 1.8-1.5 2.8-2 1.1-.5 2.2-.7 3.4-.7 1.2 0 2.4.2 3.4.7 1.1.5 2 1.1 2.8 2 .8.8 1.5 1.8 2 2.9.4 1.1.7 2.3.7 3.5zm5.3-8.9h13.2v17.8h-4.4V226h-4.9l-.6 7.7c-.2 2-.8 3.4-1.8 4.5-1 1-2.4 1.5-4.2 1.5-.2 0-.4 0-.6-.1-.2 0-.3 0-.4-.1-.1 0-.3-.1-.4-.1v-3.7h.6c.8 0 1.4-.2 1.8-.6.4-.4.7-1.1.8-2.1l.9-11.3zm26.3 5.8c.9 0 1.7.2 2.4.5.8.3 1.4.7 2 1.3.6.5 1 1.2 1.3 1.9.3.7.5 1.5.5 2.3 0 .8-.2 1.6-.5 2.3-.3.7-.8 1.3-1.3 1.9-.6.6-1.2 1-2 1.3s-1.6.5-2.4.5h-8.3v-17.8h4.5v5.8h3.8zm-3.9 8.2h3.3c.7 0 1.2-.2 1.7-.6.4-.4.7-.9.7-1.5s-.2-1.1-.7-1.5c-.4-.4-1-.6-1.7-.6H283v4.2zm25.2-2.7h4.4c-.2.9-.6 1.7-1 2.6-.5.8-1.1 1.5-1.8 2.2-.7.6-1.5 1.1-2.5 1.5-.9.4-1.9.6-3 .6-1.2 0-2.4-.2-3.4-.7-1.1-.5-2-1.1-2.8-2-.8-.8-1.4-1.8-1.9-2.9-.5-1.1-.7-2.3-.7-3.6 0-1.3.2-2.4.7-3.5.5-1.1 1.1-2.1 1.9-2.9.8-.8 1.8-1.5 2.8-2 1.1-.5 2.2-.7 3.4-.7 1.1 0 2.1.2 3 .6.9.4 1.7.9 2.5 1.5.7.6 1.3 1.4 1.8 2.2.5.8.8 1.6 1 2.5h-4.4c-.2-.5-.5-.9-.9-1.3-.3-.3-.7-.6-1.2-.9-.5-.3-1.1-.4-1.8-.4-1.3 0-2.4.4-3.2 1.3-.8.9-1.3 2-1.3 3.5s.4 2.6 1.3 3.5c.9.9 1.9 1.3 3.2 1.3.7 0 1.3-.1 1.8-.4.5-.3.9-.6 1.2-.9.4-.3.7-.7.9-1.1zm23.7 6.5h-5l-6.2-8.1v8.1h-4.5v-17.8h4.5v7.4l5.4-7.4h5l-6.4 8.5 7.2 9.3zm14.1-17.8h4.3v17.8h-4.4v-11.2l-7.6 11.2H334v-17.8h4.5V233l7.5-11.3zm21.1 0h4.3v17.8H367v-11.2l-7.6 11.2h-4.3v-17.8h4.5V233l7.5-11.3zm-3.9-4.6c.4 0 .8-.1 1.1-.3.3-.2.5-.4.6-.7.2-.3.3-.6.4-1h3.3c-.1.7-.3 1.3-.6 1.9-.3.6-.7 1.1-1.2 1.5-.5.4-1 .8-1.6 1-.6.3-1.3.4-2 .4s-1.4-.1-2-.4c-.6-.3-1.1-.6-1.6-1s-.8-.9-1.2-1.5c-.3-.6-.5-1.2-.6-1.9h3.3c.1.4.2.7.4 1 .2.3.4.5.7.7.2.2.6.3 1 .3zm0 0"/><path class="st0" d="M104.1 266.4c1.3 0 2.6.2 3.7.7 1.1.5 2.1 1.1 3 1.9.9.8 1.5 1.8 2 2.8.5 1.1.7 2.2.7 3.4 0 .8-.1 1.5-.3 2.2-.2.6-.5 1.2-.9 1.6-.4.4-.8.7-1.3 1-.5.2-1 .3-1.5.3s-1-.1-1.4-.3c-.4-.2-.7-.4-.9-.6-.3-.3-.6-.5-.8-.8-.2.3-.5.6-.8.8-.3.2-.6.4-1 .6-.4.1-.8.2-1.3.2-.6 0-1.2-.1-1.7-.3-.5-.2-1-.6-1.4-1-.4-.4-.7-.9-.9-1.5-.2-.6-.3-1.2-.3-2 0-.7.1-1.4.3-2 .2-.6.5-1.1.9-1.5.4-.4.8-.7 1.3-.9.5-.2 1.1-.3 1.7-.3.4 0 .8.1 1.1.2.3.2.6.3.8.4.3.2.5.5.7.7l.4-1.1h1.8v5.1c0 .8.1 1.3.3 1.6.3.3.6.4 1 .4s.8-.2 1.1-.7c.3-.4.5-1.2.5-2.2 0-.9-.2-1.8-.6-2.6-.4-.8-.9-1.5-1.5-2.2-.6-.6-1.4-1.1-2.2-1.5-.9-.4-1.8-.6-2.8-.6-.9 0-1.8.2-2.7.6-.8.4-1.6.9-2.2 1.5-.6.6-1.1 1.4-1.5 2.2-.4.9-.6 1.8-.6 2.8 0 1 .2 1.9.6 2.8.4.9.9 1.6 1.5 2.2.6.6 1.4 1.1 2.2 1.5.8.4 1.7.6 2.7.6.6 0 1.1-.1 1.6-.2s.9-.3 1.3-.4c.4-.2.8-.4 1.1-.6l1.3 1.8c-.4.3-.9.5-1.4.7-.5.2-1.1.4-1.7.5-.6.1-1.3.2-2.1.2-1.3 0-2.5-.2-3.6-.7-1.1-.5-2.1-1.1-2.9-2-.8-.8-1.5-1.8-2-2.9-.5-1.1-.7-2.3-.7-3.6 0-1.3.2-2.4.7-3.6.5-1.1 1.1-2.1 2-2.9.8-.8 1.8-1.5 2.9-2 1.3-.1 2.5-.3 3.8-.3zm-.3 11.7c.3 0 .6-.1.9-.2.3-.1.5-.3.7-.5.2-.2.4-.5.5-.8.1-.3.2-.7.2-1 0-.4-.1-.7-.2-1-.1-.3-.3-.6-.5-.8-.2-.3-.5-.4-.7-.6-.3-.1-.6-.2-.9-.2-.3 0-.6.1-.9.2-.3.1-.5.3-.7.6-.2.2-.4.5-.5.8-.1.3-.2.7-.2 1 0 .4.1.7.2 1 .1.3.3.6.5.8.2.2.4.4.7.5.3.1.6.2.9.2zm16.4-9.1c.5 0 1 .1 1.5.2.4.1.8.3 1.1.4.4.2.7.4.9.7l.6-1.2h2.3v11.7c0 .8-.1 1.6-.4 2.2-.3.7-.6 1.2-1.2 1.7-.5.5-1.1.9-1.9 1.1-.8.3-1.6.4-2.6.4-1.2 0-2.1-.2-2.8-.6-.7-.4-1.3-.9-1.7-1.4-.5-.6-.8-1.3-1.1-2h3.1c.1.2.3.4.5.6.2.2.5.3.8.4.3.1.7.2 1.2.2.9 0 1.6-.2 2.1-.7.5-.5.8-1.1.8-1.9v-.9c-.3.3-.6.5-.9.7-.3.2-.7.4-1.1.5-.4.1-.8.2-1.4.2-.8 0-1.5-.1-2.2-.4-.7-.3-1.3-.7-1.8-1.3-.5-.5-.9-1.2-1.2-2-.3-.8-.4-1.6-.4-2.5 0-.9.1-1.7.4-2.5.3-.8.7-1.4 1.2-2 .5-.5 1.1-1 1.8-1.3.8-.2 1.6-.3 2.4-.3zm-2.6 6.1c0 .4.1.9.2 1.2.2.4.4.7.7 1 .3.3.6.5.9.7.4.2.8.3 1.2.3.4 0 .8-.1 1.2-.3.4-.2.7-.4.9-.7.3-.3.5-.6.6-1 .2-.4.3-.8.3-1.2 0-.5-.1-.9-.3-1.3-.2-.4-.4-.7-.6-1-.3-.3-.6-.5-.9-.7-.4-.2-.7-.3-1.2-.3-.4 0-.8.1-1.2.3-.4.2-.7.4-.9.7-.3.3-.5.6-.7 1-.1.4-.2.9-.2 1.3zm18 6.7c-.6 0-1-.1-1.5-.2-.4-.1-.8-.3-1.1-.5-.4-.2-.7-.4-.9-.7l-.6 1.2h-2.3v-17.2h3.1v5.7l.9-.6c.3-.2.7-.3 1-.4.4-.1.9-.2 1.4-.2.8 0 1.5.2 2.2.5.7.3 1.3.8 1.9 1.3.5.6 1 1.3 1.3 2 .3.8.5 1.6.5 2.5 0 .9-.2 1.8-.5 2.6s-.7 1.5-1.3 2c-.6.6-1.2 1-1.9 1.4-.6.5-1.4.6-2.2.6zm-3.6-6.4c0 1 .3 1.9.9 2.5.6.6 1.4.9 2.3.9.4 0 .9-.1 1.2-.3.4-.2.7-.4 1-.7.3-.3.5-.6.7-1.1.2-.4.3-.9.3-1.4 0-.5-.1-1-.3-1.4-.2-.4-.4-.8-.7-1.1-.3-.3-.6-.5-1-.7-.4-.2-.8-.3-1.2-.3-.9 0-1.7.3-2.3.9-.6.8-.9 1.6-.9 2.7zm13.8 0c0 1 .3 1.9.9 2.5.6.6 1.4.9 2.3.9.4 0 .8-.1 1.2-.3.4-.2.7-.4 1-.7.3-.3.5-.6.7-1.1.2-.4.3-.9.3-1.4 0-.5-.1-1-.3-1.4-.2-.4-.4-.8-.7-1.1-.3-.3-.6-.5-1-.7-.4-.2-.8-.3-1.2-.3-.9 0-1.7.3-2.3.9-.6.8-.9 1.6-.9 2.7zm9.4 0c0 .9-.2 1.7-.5 2.5s-.8 1.5-1.4 2c-.6.6-1.2 1-2 1.4-.8.3-1.6.5-2.4.5-.9 0-1.7-.2-2.4-.5-.8-.4-1.4-.8-2-1.4-.6-.6-1-1.3-1.4-2-.3-.8-.5-1.6-.5-2.5 0-.9.2-1.7.5-2.5s.8-1.5 1.4-2c.6-.6 1.3-1 2-1.4.8-.3 1.6-.5 2.4-.5.8 0 1.6.2 2.4.5.8.3 1.4.8 2 1.4.6.6 1 1.3 1.4 2 .4.8.5 1.6.5 2.5zm6.9 6.4c-.7 0-1.4-.1-2-.4-.6-.3-1.1-.6-1.6-1.1-.4-.5-.8-1-1-1.7-.2-.7-.3-1.4-.3-2.2V269h3.1v7c0 .8.2 1.5.7 2 .5.5 1.1.8 1.9.8.8 0 1.4-.3 1.9-.8s.8-1.2.8-2v-7h3.1v12.6h-2.3l-.6-1.2c-.3.3-.7.5-1 .7-.3.2-.7.4-1.1.5-.6.2-1 .2-1.6.2zm7 2.2h8.9v2.7h-8.9zm8.8-6.3h3c.1.4.3.8.6 1.1.3.3.8.4 1.3.4s1-.1 1.3-.4c.3-.3.5-.6.5-.9 0-.3-.2-.5-.5-.7-.3-.2-.7-.3-1.2-.4-.5-.1-1-.3-1.5-.4-.6-.1-1.1-.4-1.5-.6-.5-.3-.9-.6-1.2-1.1-.3-.5-.5-1.1-.5-1.8 0-.5.1-1 .3-1.4.2-.5.5-.9.9-1.2.4-.4.9-.6 1.4-.8.6-.2 1.2-.3 1.9-.3 1.5 0 2.7.4 3.5 1.1.8.7 1.3 1.6 1.4 2.7h-3c-.1-.3-.3-.5-.6-.8-.3-.3-.7-.4-1.2-.4s-.8.1-1.1.4c-.3.2-.4.5-.4.9 0 .3.2.5.5.7.3.2.7.3 1.2.4.5.1 1 .3 1.5.4.6.1 1.1.4 1.6.7.5.3.9.7 1.2 1.1.3.5.5 1.1.5 1.8 0 .5-.1 1-.3 1.5-.2.5-.5.9-.9 1.2-.4.3-.9.6-1.5.8-.6.2-1.2.3-1.9.3-1.6 0-2.9-.4-3.7-1.1-1-1-1.4-2-1.6-3.2zm14.3-2.3c0 1 .3 1.9.9 2.5.6.6 1.4.9 2.3.9.4 0 .9-.1 1.2-.3.4-.2.7-.4 1-.7.3-.3.5-.6.7-1.1.2-.4.3-.9.3-1.4 0-.5-.1-1-.3-1.4-.2-.4-.4-.8-.7-1.1-.3-.3-.6-.5-1-.7-.4-.2-.8-.3-1.2-.3-.9 0-1.7.3-2.3.9-.6.8-.9 1.6-.9 2.7zm9.4 0c0 .9-.2 1.7-.5 2.5s-.8 1.5-1.4 2c-.6.6-1.2 1-2 1.4-.8.3-1.6.5-2.4.5-.9 0-1.7-.2-2.4-.5-.8-.4-1.4-.8-2-1.4-.6-.6-1-1.3-1.4-2-.3-.8-.5-1.6-.5-2.5 0-.9.2-1.7.5-2.5s.8-1.5 1.4-2c.6-.6 1.3-1 2-1.4.8-.3 1.6-.5 2.4-.5.8 0 1.6.2 2.4.5.8.3 1.4.8 2 1.4.6.6 1 1.3 1.4 2 .3.8.5 1.6.5 2.5zm1.2 2.3h3c.1.4.3.8.6 1.1.3.3.8.4 1.3.4s1-.1 1.3-.4c.3-.3.5-.6.5-.9 0-.3-.2-.5-.5-.7-.3-.2-.7-.3-1.2-.4-.5-.1-1-.3-1.5-.4-.6-.1-1.1-.4-1.5-.6-.5-.3-.9-.6-1.2-1.1-.3-.5-.5-1.1-.5-1.8 0-.5.1-1 .3-1.4.2-.5.5-.9.9-1.2.4-.4.9-.6 1.4-.8.6-.2 1.2-.3 1.9-.3 1.5 0 2.7.4 3.5 1.1.8.7 1.3 1.6 1.4 2.7h-3c-.1-.3-.3-.5-.6-.8-.3-.3-.7-.4-1.2-.4s-.8.1-1.1.4c-.3.2-.4.5-.4.9 0 .3.2.5.5.7.3.2.7.3 1.2.4.5.1 1 .3 1.5.4.6.1 1.1.4 1.6.7.5.3.9.7 1.2 1.1.3.5.5 1.1.5 1.8 0 .5-.1 1-.3 1.5-.2.5-.5.9-.9 1.2-.4.3-.9.6-1.5.8-.6.2-1.2.3-1.9.3-1.6 0-2.9-.4-3.7-1.1-1-1-1.5-2-1.6-3.2zm18.5-8.7c.7 0 1.3.1 1.9.4.6.2 1.1.6 1.5 1 .4.5.7 1 1 1.7.3.7.4 1.4.4 2.2v7.4H223v-7c0-.8-.3-1.5-.8-2s-1.1-.8-1.9-.8c-.8 0-1.4.3-1.9.8s-.7 1.2-.7 2v7h-3.1v-17.2h3.1v5.9c.2-.3.5-.5.9-.7.3-.2.7-.3 1.1-.4.4-.2 1-.3 1.6-.3zm5.1 15h8.9v2.7h-8.9zm20.7-2.3h-3.6l-4.4-5.7v5.7H236v-17.2h3.1v9.9l3.8-5.2h3.6l-4.5 6 5.1 6.5zm3-6.3c0 1 .3 1.9.9 2.5.6.6 1.4.9 2.3.9.4 0 .9-.1 1.2-.3.4-.2.7-.4 1-.7.3-.3.5-.6.7-1.1.2-.4.3-.9.3-1.4 0-.5-.1-1-.3-1.4-.2-.4-.4-.8-.7-1.1-.3-.3-.6-.5-1-.7-.4-.2-.8-.3-1.2-.3-.9 0-1.7.3-2.3.9-.6.8-.9 1.6-.9 2.7zm9.4 0c0 .9-.2 1.7-.5 2.5s-.8 1.5-1.4 2c-.6.6-1.2 1-2 1.4-.8.3-1.6.5-2.4.5-.9 0-1.7-.2-2.4-.5-.8-.4-1.4-.8-2-1.4-.6-.6-1-1.3-1.4-2-.3-.8-.5-1.6-.5-2.5 0-.9.2-1.7.5-2.5s.8-1.5 1.4-2c.6-.6 1.3-1 2-1.4.8-.3 1.6-.5 2.4-.5.8 0 1.6.2 2.4.5.8.3 1.4.8 2 1.4.6.6 1 1.3 1.4 2 .3.8.5 1.6.5 2.5zm7.8-6.4c.6 0 1.2.1 1.6.3.5.2.8.3 1.1.5.3.3.6.5.8.8.3-.3.6-.6 1-.8.4-.2.8-.4 1.2-.5.5-.2 1-.3 1.5-.3 1.4 0 2.4.4 3.2 1.3.8.9 1.2 2.1 1.2 3.8v7.5h-3.1v-7.2c0-.8-.2-1.4-.6-1.8-.4-.4-.9-.7-1.4-.7-.6 0-1 .2-1.4.7-.4.4-.6 1-.6 1.8v7.2h-3.1v-7.2c0-.8-.2-1.4-.6-1.8-.4-.4-.9-.7-1.4-.7-.6 0-1 .2-1.4.7-.4.4-.6 1-.6 1.8v7.2h-3.1V269h2.3l.6 1.2c.3-.3.5-.5.9-.7.3-.2.6-.3.9-.4.1 0 .5-.1 1-.1zm13.2 8.7h3c.1.4.3.8.6 1.1.3.3.8.4 1.3.4s1-.1 1.3-.4c.3-.3.5-.6.5-.9 0-.3-.2-.5-.5-.7-.3-.2-.7-.3-1.2-.4-.5-.1-1-.3-1.5-.4-.6-.1-1.1-.4-1.5-.6-.5-.3-.9-.6-1.2-1.1-.3-.5-.5-1.1-.5-1.8 0-.5.1-1 .3-1.4.2-.5.5-.9.9-1.2.4-.4.9-.6 1.4-.8.6-.2 1.2-.3 1.9-.3 1.5 0 2.7.4 3.5 1.1.8.7 1.3 1.6 1.4 2.7h-3c-.1-.3-.3-.5-.6-.8-.3-.3-.7-.4-1.2-.4s-.8.1-1.1.4c-.3.2-.4.5-.4.9 0 .3.2.5.5.7.3.2.7.3 1.2.4.5.1 1 .3 1.5.4.6.1 1.1.4 1.6.7.5.3.9.7 1.2 1.1.3.5.5 1.1.5 1.8 0 .5-.1 1-.3 1.5-.2.5-.5.9-.9 1.2-.4.3-.9.6-1.5.8-.6.2-1.2.3-1.9.3-1.6 0-2.9-.4-3.7-1.1-.9-1-1.4-2-1.6-3.2zm14.3-2.3c0 1 .3 1.9.9 2.5.6.6 1.4.9 2.3.9.4 0 .9-.1 1.2-.3.4-.2.7-.4 1-.7.3-.3.5-.6.7-1.1.2-.4.3-.9.3-1.4 0-.5-.1-1-.3-1.4-.2-.4-.4-.8-.7-1.1-.3-.3-.6-.5-1-.7-.4-.2-.8-.3-1.2-.3-.9 0-1.7.3-2.3.9-.6.8-.9 1.6-.9 2.7zm9.4 0c0 .9-.2 1.7-.5 2.5s-.8 1.5-1.4 2c-.6.6-1.2 1-2 1.4-.8.3-1.6.5-2.4.5-.9 0-1.7-.2-2.4-.5-.8-.4-1.4-.8-2-1.4-.6-.6-1-1.3-1.4-2-.3-.8-.5-1.6-.5-2.5 0-.9.2-1.7.5-2.5s.8-1.5 1.4-2c.6-.6 1.3-1 2-1.4.8-.3 1.6-.5 2.4-.5.8 0 1.6.2 2.4.5.8.3 1.4.8 2 1.4.6.6 1 1.3 1.4 2 .3.8.5 1.6.5 2.5zm7.8-6.4c.6 0 1.2.1 1.6.3.5.2.8.3 1.1.5.3.3.6.5.8.8.3-.3.6-.6 1-.8.4-.2.8-.4 1.2-.5.5-.2 1-.3 1.5-.3 1.4 0 2.4.4 3.2 1.3.8.9 1.2 2.1 1.2 3.8v7.5h-3.1v-7.2c0-.8-.2-1.4-.6-1.8-.4-.4-.9-.7-1.4-.7-.6 0-1 .2-1.4.7-.4.4-.6 1-.6 1.8v7.2h-3.2v-7.2c0-.8-.2-1.4-.6-1.8-.4-.4-.9-.7-1.4-.7-.6 0-1 .2-1.4.7-.4.4-.6 1-.6 1.8v7.2h-3.1V269h2.3l.6 1.2c.3-.3.5-.5.8-.7.3-.2.6-.3.9-.4.3 0 .7-.1 1.2-.1zm16.4 6.4c0 1 .3 1.9.9 2.5.6.6 1.4.9 2.3.9.4 0 .9-.1 1.2-.3.4-.2.7-.4 1-.7.3-.3.5-.6.7-1.1.2-.4.3-.9.3-1.4 0-.5-.1-1-.3-1.4-.2-.4-.4-.8-.7-1.1-.3-.3-.6-.5-1-.7-.4-.2-.8-.3-1.2-.3-.9 0-1.7.3-2.3.9-.6.8-.9 1.6-.9 2.7zm9.4 0c0 .9-.2 1.7-.5 2.5s-.8 1.5-1.4 2c-.6.6-1.2 1-2 1.4-.8.3-1.6.5-2.4.5-.9 0-1.7-.2-2.4-.5-.8-.4-1.4-.8-2-1.4-.6-.6-1-1.3-1.4-2-.3-.8-.5-1.6-.5-2.5 0-.9.2-1.7.5-2.5s.8-1.5 1.4-2c.6-.6 1.3-1 2-1.4.8-.3 1.6-.5 2.4-.5.8 0 1.6.2 2.4.5.8.3 1.4.8 2 1.4.6.6 1 1.3 1.4 2 .3.8.5 1.6.5 2.5zm1.9-11h3.1v17.2h-3.1zm5.3 13.3h3c.1.4.3.8.6 1.1.3.3.8.4 1.3.4s1-.1 1.3-.4c.3-.3.5-.6.5-.9 0-.3-.2-.5-.5-.7-.3-.2-.7-.3-1.2-.4-.5-.1-1-.3-1.5-.4-.6-.1-1.1-.4-1.5-.6-.5-.3-.9-.6-1.2-1.1-.3-.5-.5-1.1-.5-1.8 0-.5.1-1 .3-1.4.2-.5.5-.9.9-1.2.4-.4.9-.6 1.4-.8.6-.2 1.2-.3 1.9-.3 1.5 0 2.7.4 3.5 1.1.8.7 1.3 1.6 1.4 2.7h-3c-.1-.3-.3-.5-.6-.8-.3-.3-.7-.4-1.2-.4s-.8.1-1.1.4c-.3.2-.4.5-.4.9 0 .3.2.5.5.7.3.2.7.3 1.2.4.5.1 1 .3 1.5.4.6.1 1.1.4 1.6.7.5.3.9.7 1.2 1.1.3.5.5 1.1.5 1.8 0 .5-.1 1-.3 1.5-.2.5-.5.9-.9 1.2-.4.3-.9.6-1.5.8-.6.2-1.2.3-1.9.3-1.6 0-2.9-.4-3.7-1.1-1-1-1.5-2-1.6-3.2zm22.8 4h-3.6l-4.4-5.7v5.7h-3.1v-17.2h3.1v9.9l3.8-5.2h3.6l-4.5 6 5.1 6.5zm4-12.6v12.6h-3.1v-12.6h3.1zm-1.5-1.7c-.5 0-.9-.2-1.3-.5-.4-.4-.5-.8-.5-1.3s.2-.9.5-1.2c.4-.4.8-.5 1.3-.5s.9.2 1.2.5c.4.3.5.7.5 1.2s-.2.9-.5 1.3-.7.5-1.2.5zm7.8 13.7l-4.8-12h3.2l3.1 8.2 2.9-8.2h3.2c-.9 2.3-1.7 4.4-2.4 6.2-.4 1.1-.8 2-1 2.7-.3.7-.5 1.3-.7 1.9-.2.6-.4 1.1-.6 1.5-.2.4-.3.6-.3.7-.3.8-.6 1.4-.9 1.9-.3.5-.6.9-1 1.3-.3.3-.7.6-1.1.7-.4.1-.9.2-1.4.2h-.7c-.1 0-.2 0-.3-.1v-2.6c.7 0 1.2-.2 1.6-.5.4-.3.7-.7.8-1.1l.4-.8zm0 0"/><path d="M118.5 643.1c0 .7.1 1.3.3 1.9.2.6.5 1.1.9 1.5.4.4.8.7 1.4 1 .5.2 1.1.3 1.6.3s1.1-.1 1.6-.3c.5-.2 1-.6 1.4-1 .4-.4.7-.9.9-1.5.2-.6.3-1.2.3-1.9s-.1-1.3-.3-1.9c-.2-.6-.5-1.1-.9-1.5-.4-.4-.8-.7-1.4-.9-.5-.2-1-.3-1.6-.3-.6 0-1.1.1-1.6.3-.5.2-1 .5-1.4.9-.4.4-.7.9-.9 1.5-.2.6-.3 1.2-.3 1.9zm11.1 0c0 1-.2 2-.6 2.9-.4.9-.9 1.7-1.5 2.3-.6.7-1.4 1.2-2.2 1.5-.8.4-1.7.6-2.6.6-.9 0-1.8-.2-2.7-.6-.8-.4-1.6-.9-2.2-1.5-.6-.7-1.1-1.4-1.5-2.3-.4-.9-.5-1.8-.5-2.9 0-1 .2-2 .5-2.8.4-.9.9-1.7 1.5-2.3.6-.7 1.4-1.2 2.2-1.6.8-.4 1.7-.6 2.7-.6.9 0 1.8.2 2.6.6.8.4 1.6.9 2.2 1.6.6.7 1.2 1.4 1.5 2.3.4.8.6 1.7.6 2.8zm1.3-4.6v-2.6H142v2.6h-4.2v11.7h-2.7v-11.7h-4.2zm24.6 11.7h-3.2l-5.1-6.5v6.5h-2.7v-14.4h2.7v6.4l4.8-6.4h3.2l-5.4 7.1 5.7 7.3zm1.8-14.3h5.4c.7 0 1.3.1 1.9.4.6.3 1.1.6 1.5 1 .4.4.8 1 1 1.5.3.6.4 1.2.4 1.8 0 .7-.1 1.3-.4 1.9-.3.6-.6 1.1-1 1.5-.4.4-.9.8-1.5 1-.6.3-1.2.4-1.9.4H160v4.8h-2.7v-14.3zm2.7 6.9h2.6c.3 0 .5 0 .8-.2.3-.1.5-.3.7-.5.2-.2.4-.4.5-.7.1-.3.2-.5.2-.8 0-.3-.1-.5-.2-.8-.1-.3-.3-.5-.5-.7-.2-.2-.4-.4-.7-.5-.3-.1-.5-.2-.8-.2H160v4.4zm12.2.3c0 .7.1 1.3.3 1.9.2.6.5 1.1.9 1.5.4.4.8.7 1.4 1 .5.2 1.1.3 1.6.3s1.1-.1 1.6-.3c.5-.2 1-.6 1.4-1 .4-.4.7-.9.9-1.5.2-.6.3-1.2.3-1.9s-.1-1.3-.3-1.9c-.2-.6-.5-1.1-.9-1.5-.4-.4-.8-.7-1.4-.9-.5-.2-1-.3-1.6-.3-.6 0-1.1.1-1.6.3-.5.2-1 .5-1.4.9-.4.4-.7.9-.9 1.5-.2.6-.3 1.2-.3 1.9zm11.2 0c0 1-.2 2-.6 2.9-.4.9-.9 1.7-1.5 2.3-.6.7-1.4 1.2-2.2 1.5-.8.4-1.7.6-2.6.6-.9 0-1.8-.2-2.7-.6-.8-.4-1.6-.9-2.2-1.5-.6-.7-1.1-1.4-1.5-2.3-.4-.9-.5-1.8-.5-2.9 0-1 .2-2 .5-2.8.4-.9.9-1.7 1.5-2.3.6-.7 1.4-1.2 2.2-1.6.8-.4 1.7-.6 2.7-.6.9 0 1.8.2 2.6.6.8.4 1.6.9 2.2 1.6.6.7 1.1 1.4 1.5 2.3.4.8.6 1.7.6 2.8zm14.3 7.1H195v-9.4l-6.4 9.4h-2.4v-14.4h2.7v9.5l6.4-9.5h2.4v14.4zm-5.7-17.4c.3 0 .4 0 .6-.2.2-.1.3-.3.4-.4.1-.1.2-.3.3-.6h1.9c-.1.4-.2.8-.4 1.1-.2.3-.4.6-.7.9-.3.3-.6.5-1 .6-.4.1-.7.2-1.2.2-.4 0-.8-.1-1.2-.2-.4-.1-.7-.3-.9-.6-.3-.3-.5-.6-.7-.9-.2-.3-.3-.7-.3-1.1h1.9c.1.2.1.4.3.6.1.1.2.3.4.4.1.1.4.2.6.2zm8.2 5.7v-2.6h11.2v2.6h-4.2v11.7h-2.7v-11.7h-4.3zm16.3 9.1h7.4v2.6h-10.1v-14.4h9.9v2.6h-7.2v3.1h6.6v2.6h-6.6v3.5zm26.6 2.6h-3.2l-5.1-6.5v6.5H232v-14.4h2.7v6.4l4.8-6.4h3.2l-5.4 7.1 5.8 7.3zm4-2.9l-1 3h-2.9l5.4-14.4h2.5l5.4 14.4h-2.9l-1-3h-5.5zm.9-2.5h3.7l-1.8-5.3-1.9 5.3zm22.6-8.9h2.4v14.4h-2.7v-8l-3.7 8h-1.8l-3.7-8v8h-2.7v-14.4h2.4l4.9 10.6 4.9-10.6zm8.9 11.7h7.4v2.6h-10.1v-14.4h9.9v2.6h-7.2v3.1h6.6v2.6h-6.6v3.5zm10.2-11.7h5.4c.7 0 1.3.1 1.9.4.6.3 1.1.6 1.5 1 .4.4.8 1 1 1.5.3.6.4 1.2.4 1.8 0 .7-.1 1.3-.4 1.9-.3.6-.6 1.1-1 1.5-.4.4-.9.8-1.5 1-.6.3-1.2.4-1.9.4h-2.6v4.8h-2.7v-14.3zm2.7 6.9h2.6c.3 0 .5 0 .8-.2.3-.1.5-.3.7-.5.2-.2.4-.4.5-.7.1-.3.2-.5.2-.8 0-.3-.1-.5-.2-.8-.1-.3-.3-.5-.5-.7-.2-.2-.4-.4-.7-.5-.3-.1-.5-.2-.8-.2h-2.6v4.4zm12.2.3c0 .7.1 1.3.3 1.9.2.6.5 1.1.9 1.5.4.4.8.7 1.4 1 .5.2 1.1.3 1.6.3s1.1-.1 1.6-.3c.5-.2 1-.6 1.4-1 .4-.4.7-.9.9-1.5.2-.6.3-1.2.3-1.9s-.1-1.3-.3-1.9c-.2-.6-.5-1.1-.9-1.5-.4-.4-.8-.7-1.4-.9-.5-.2-1-.3-1.6-.3-.6 0-1.1.1-1.6.3-.5.2-1 .5-1.4.9-.4.4-.7.9-.9 1.5-.2.6-.3 1.2-.3 1.9zm11.2 0c0 1-.2 2-.6 2.9-.4.9-.9 1.7-1.5 2.3-.6.7-1.4 1.2-2.2 1.5-.8.4-1.7.6-2.6.6-.9 0-1.8-.2-2.7-.6-.8-.4-1.6-.9-2.2-1.5-.6-.7-1.1-1.4-1.5-2.3-.4-.9-.5-1.8-.5-2.9 0-1 .2-2 .5-2.8.4-.9.9-1.7 1.5-2.3.6-.7 1.4-1.2 2.2-1.6.8-.4 1.7-.6 2.7-.6.9 0 1.8.2 2.6.6.8.4 1.6.9 2.2 1.6.6.7 1.2 1.4 1.5 2.3.4.8.6 1.7.6 2.8zm14.3 7.1h-2.7v-9.4l-6.4 9.4h-2.4v-14.4h2.7v9.5l6.4-9.5h2.4v14.4zm-5.7-17.4c.3 0 .4 0 .6-.2.2-.1.3-.3.4-.4.1-.1.2-.3.3-.6h1.9c-.1.4-.2.8-.4 1.1-.2.3-.4.6-.7.9-.3.3-.6.5-1 .6-.4.1-.7.2-1.2.2-.4 0-.8-.1-1.2-.2-.4-.1-.7-.3-.9-.6-.3-.3-.5-.6-.7-.9-.2-.3-.3-.7-.3-1.1h1.9c.1.2.1.4.3.6.1.1.2.3.4.4.2.1.4.2.6.2zm21.2 17.4h-2.7l-5.1-14.4h2.8l3.7 10.5 3.6-10.5h2.9l-5.2 14.4zm18.3 0h-3.2l-5.1-6.5v6.5h-2.7v-14.4h2.7v6.4l4.8-6.4h3.2l-5.4 7.1 5.7 7.3zM117.6 325.5h32.6c6.8 0 12.2 5.4 12.2 12.2v32.5c0 6.8-5.4 12.2-12.2 12.2h-32.6c-6.8 0-12.2-5.4-12.2-12.2v-32.5c0-6.7 5.4-12.2 12.2-12.2zm0 0"/><path class="st2" d="M117.6 333.7h32.6c2.3 0 4.1 1.8 4.1 4.1v32.5c0 2.3-1.8 4.1-4.1 4.1h-32.6c-2.3 0-4.1-1.8-4.1-4.1v-32.5c0-2.3 1.8-4.1 4.1-4.1zm0 0"/><path d="M127.3 341.8h13c3.2 0 5.7 2.5 5.7 5.7v13c0 3.2-2.5 5.7-5.7 5.7h-13c-3.2 0-5.7-2.5-5.7-5.7v-13c.1-3.1 2.6-5.7 5.7-5.7zm-9.7 195.3h32.6c6.8 0 12.2 5.4 12.2 12.2v32.6c0 6.8-5.4 12.2-12.2 12.2h-32.6c-6.8 0-12.2-5.4-12.2-12.2v-32.6c0-6.7 5.4-12.2 12.2-12.2zm0 0"/><path class="st2" d="M117.6 545.2h32.6c2.3 0 4.1 1.8 4.1 4.1v32.6c0 2.3-1.8 4.1-4.1 4.1h-32.6c-2.3 0-4.1-1.8-4.1-4.1v-32.6c0-2.2 1.8-4.1 4.1-4.1zm0 0"/><path d="M127.3 553.4h13c3.2 0 5.7 2.5 5.7 5.7v13c0 3.2-2.5 5.7-5.7 5.7h-13c-3.2 0-5.7-2.5-5.7-5.7v-13c.1-3.2 2.6-5.7 5.7-5.7zm0 0"/><defs><path id="SVGID_1_" d="M316.6 325.5h57.3v58.3h-57.3z"/></defs><clipPath id="SVGID_00000158006462951455998130000008456115253698832547_"><use xlink:href="#SVGID_1_" overflow="visible"/></clipPath><path d="M329.1 325.5h32.5c6.8 0 12.2 5.4 12.2 12.2v32.5c0 6.8-5.4 12.2-12.2 12.2h-32.5c-6.8 0-12.2-5.4-12.2-12.2v-32.5c0-6.7 5.5-12.2 12.2-12.2zm0 0" clip-path="url(#SVGID_00000158006462951455998130000008456115253698832547_)"/><path class="st2" d="M329.1 333.7h32.5c2.3 0 4.1 1.8 4.1 4.1v32.5c0 2.3-1.8 4.1-4.1 4.1h-32.5c-2.3 0-4.1-1.8-4.1-4.1v-32.5c.1-2.3 1.9-4.1 4.1-4.1zm0 0"/><path d="M338.9 341.8h13c3.2 0 5.7 2.5 5.7 5.7v13c0 3.2-2.5 5.7-5.7 5.7h-13c-3.2 0-5.7-2.5-5.7-5.7v-13c0-3.1 2.6-5.7 5.7-5.7zm0 0"/><defs><path id="SVGID_00000091737354754371123180000006674858163509886371_" d="M105.4 325.5h268.5V594H105.4z"/></defs><clipPath id="SVGID_00000062895111832997737680000013924131076789914541_"><use xlink:href="#SVGID_00000091737354754371123180000006674858163509886371_" overflow="visible"/></clipPath><path d="M251.8 325.5h4.1c2.7 0 4.1 1.4 4.1 4.1 0 2.7 1.4 4.1 4.1 4.1 2.7 0 4.1 1.4 4.1 4.1v8.1c0 2.7-1.4 4.1-4.1 4.1H256c-2.7 0-4.1 1.4-4.1 4.1v16.3c0 2.7-1.4 4.1-4.1 4.1-2.7 0-4.1 1.4-4.1 4.1 0 2.7-1.4 4.1-4.1 4.1-2.7 0-4.1-1.4-4.1-4.1 0-2.7-1.4-4.1-4.1-4.1-2.7 0-4.1-1.4-4.1-4.1 0-2.7-1.4-4.1-4.1-4.1-2.7 0-4.1 1.4-4.1 4.1 0 2.7-1.4 4.1-4.1 4.1-2.7 0-4.1 1.4-4.1 4.1v8.1c0 2.7-1.4 4.1-4.1 4.1-2.7 0-4.1 1.4-4.1 4.1 0 2.7 1.4 4.1 4.1 4.1 2.7 0 4.1 1.4 4.1 4.1 0 2.7-1.4 4.1-4.1 4.1h-16.3c-2.7 0-4.1 1.4-4.1 4.1 0 2.7 1.4 4.1 4.1 4.1 2.7 0 4.1 1.4 4.1 4.1 0 2.7-1.4 4.1-4.1 4.1h-8.1c-2.7 0-4.1 1.4-4.1 4.1 0 2.7 1.4 4.1 4.1 4.1 2.7 0 4.1 1.4 4.1 4.1 0 2.7-1.4 4.1-4.1 4.1h-8.1c-2.7 0-4.1 1.4-4.1 4.1 0 2.7-1.4 4.1-4.1 4.1H158c-2.7 0-4.1-1.4-4.1-4.1 0-2.7 1.4-4.1 4.1-4.1 2.7 0 4.1-1.4 4.1-4.1 0-2.7-1.4-4.1-4.1-4.1-2.7 0-4.1-1.4-4.1-4.1 0-2.7 1.4-4.1 4.1-4.1 2.7 0 4.1-1.4 4.1-4.1 0-2.7-1.4-4.1-4.1-4.1-2.7 0-4.1-1.4-4.1-4.1 0-2.7 1.4-4.1 4.1-4.1h8.1c2.7 0 4.1 1.4 4.1 4.1 0 2.7 1.4 4.1 4.1 4.1 2.7 0 4.1-1.4 4.1-4.1v-8.1c0-2.7 1.4-4.1 4.1-4.1h8.1c2.7 0 4.1-1.4 4.1-4.1v-8.1c0-2.7 1.4-4.1 4.1-4.1 2.7 0 4.1-1.4 4.1-4.1v-8.1c0-2.7-1.4-4.1-4.1-4.1-2.7 0-4.1-1.4-4.1-4.1 0-2.7 1.4-4.1 4.1-4.1 2.7 0 4.1-1.4 4.1-4.1 0-2.7 1.4-4.1 4.1-4.1 2.7 0 4.1-1.4 4.1-4.1 0-2.7 1.4-4.1 4.1-4.1 2.7 0 4.1-1.4 4.1-4.1 0-2.7-1.4-4.1-4.1-4.1-2.7 0-4.1 1.4-4.1 4.1 0 2.7-1.4 4.1-4.1 4.1h-16.3c-2.7 0-4.1 1.4-4.1 4.1 0 2.7-1.4 4.1-4.1 4.1h-8.1c-2.7 0-4.1-1.4-4.1-4.1 0-2.7 1.4-4.1 4.1-4.1 2.7 0 4.1-1.4 4.1-4.1 0-2.7 1.4-4.1 4.1-4.1 2.7 0 4.1-1.4 4.1-4.1 0-2.7 1.4-4.1 4.1-4.1 2.7 0 4.1 1.4 4.1 4.1 0 2.7 1.4 4.1 4.1 4.1 2.7 0 4.1-1.4 4.1-4.1 0-2.7 1.4-4.1 4.1-4.1h32.5c2.7 0 4.1 1.4 4.1 4.1v8.1c0 2.7 1.4 4.1 4.1 4.1 2.7 0 4.1-1.4 4.1-4.1v-8.1c0-2.7 1.4-4.1 4.1-4.1m-20.5 32.6v4.1c0 2.7 1.4 4.1 4.1 4.1 2.7 0 4.1-1.4 4.1-4.1 0-2.7-1.4-4.1-4.1-4.1-2.7 0-4.1 1.4-4.1 4.1m-8.2-20.4V354c0 2.7 1.4 4.1 4.1 4.1 2.7 0 4.1-1.4 4.1-4.1 0-2.7 1.4-4.1 4.1-4.1 2.7 0 4.1-1.4 4.1-4.1 0-2.7-1.4-4.1-4.1-4.1h-8.1c-2.7 0-4.1 1.4-4.1 4.1m-16.3 12.3v4.1c0 2.7 1.4 4.1 4.1 4.1 2.7 0 4.1-1.4 4.1-4.1 0-2.7-1.4-4.1-4.1-4.1-2.7 0-4.1 1.4-4.1 4.1m65.1-20.4h4.1c2.7 0 4.1 1.4 4.1 4.1 0 2.7 1.4 4.1 4.1 4.1 2.7 0 4.1 1.4 4.1 4.1 0 2.7-1.4 4.1-4.1 4.1-2.7 0-4.1 1.4-4.1 4.1 0 2.7-1.4 4.1-4.1 4.1-2.7 0-4.1-1.4-4.1-4.1V346c0-2.7 1.4-4.1 4.1-4.1m-12.3 24.3h4.1c2.7 0 4.1 1.4 4.1 4.1v8.1c0 2.7 1.4 4.1 4.1 4.1 2.7 0 4.1 1.4 4.1 4.1v16.3c0 2.7-1.4 4.1-4.1 4.1-2.7 0-4.1-1.4-4.1-4.1v-8.1c0-2.7-1.4-4.1-4.1-4.1h-16.3c-2.7 0-4.1 1.4-4.1 4.1v8.1c0 2.7-1.4 4.1-4.1 4.1-2.7 0-4.1 1.4-4.1 4.1 0 2.7-1.4 4.1-4.1 4.1-2.7 0-4.1-1.4-4.1-4.1v-16.3c0-2.7 1.4-4.1 4.1-4.1 2.7 0 4.1-1.4 4.1-4.1 0-2.7 1.4-4.1 4.1-4.1 2.7 0 4.1-1.4 4.1-4.1 0-2.7 1.4-4.1 4.1-4.1 2.7 0 4.1 1.4 4.1 4.1 0 2.7 1.4 4.1 4.1 4.1 2.7 0 4.1-1.4 4.1-4.1v-8.1c0-2.7 1.4-4.1 4.1-4.1m20.2 16.3h4.1c2.7 0 4.1 1.4 4.1 4.1 0 2.7 1.4 4.1 4.1 4.1h8.1c2.7 0 4.1 1.4 4.1 4.1v8.1c0 2.7 1.4 4.1 4.1 4.1 2.7 0 4.1 1.4 4.1 4.1 0 2.7-1.4 4.1-4.1 4.1-2.7 0-4.1 1.4-4.1 4.1 0 2.7-1.4 4.1-4.1 4.1-2.7 0-4.1-1.4-4.1-4.1 0-2.7-1.4-4.1-4.1-4.1h-8.1c-2.7 0-4.1-1.4-4.1-4.1v-24.4c0-2.7 1.4-4.1 4.1-4.1m4.1 16.2v4.1c0 2.7 1.4 4.1 4.1 4.1 2.7 0 4.1-1.4 4.1-4.1 0-2.7-1.4-4.1-4.1-4.1-2.7 0-4.1 1.4-4.1 4.1m-187.2-12.3h4.1c2.7 0 4.1 1.4 4.1 4.1 0 2.7 1.4 4.1 4.1 4.1 2.7 0 4.1 1.4 4.1 4.1v8.1c0 2.7-1.4 4.1-4.1 4.1-2.7 0-4.1 1.4-4.1 4.1 0 2.7-1.4 4.1-4.1 4.1-2.7 0-4.1 1.4-4.1 4.1 0 2.7-1.4 4.1-4.1 4.1-2.7 0-4.1-1.4-4.1-4.1V403c0-2.7 1.4-4.1 4.1-4.1 2.7 0 4.1-1.4 4.1-4.1 0-2.7 1.4-4.1 4.1-4.1m231.9-.1h4.1c2.7 0 4.1 1.4 4.1 4.1 0 2.7 1.4 4.1 4.1 4.1 2.7 0 4.1 1.4 4.1 4.1v8.1c0 2.7 1.4 4.1 4.1 4.1 2.7 0 4.1 1.4 4.1 4.1 0 2.7-1.4 4.1-4.1 4.1h-8.1c-2.7 0-4.1-1.4-4.1-4.1V411c0-2.7-1.4-4.1-4.1-4.1-2.7 0-4.1 1.4-4.1 4.1 0 2.7-1.4 4.1-4.1 4.1-2.7 0-4.1-1.4-4.1-4.1v-8.1c0-2.7 1.4-4.1 4.1-4.1 2.7 0 4.1-1.4 4.1-4.1 0-2.7 1.4-4.1 4.1-4.1m-240.2 40.7h20.3c2.7 0 4.1 1.4 4.1 4.1 0 2.7-1.4 4.1-4.1 4.1h-8.1c-2.7 0-4.1 1.4-4.1 4.1v16.3c0 2.7 1.4 4.1 4.1 4.1h8.1c2.7 0 4.1 1.4 4.1 4.1 0 2.7-1.4 4.1-4.1 4.1h-16.3c-2.7 0-4.1-1.4-4.1-4.1v-16.3c0-2.7-1.4-4.1-4.1-4.1-2.7 0-4.1-1.4-4.1-4.1 0-2.7 1.4-4.1 4.1-4.1 2.7 0 4.1-1.4 4.1-4.1 0-2.7 1.4-4.1 4.1-4.1m191.3 0h4.1c2.7 0 4.1 1.4 4.1 4.1 0 2.7 1.4 4.1 4.1 4.1 2.7 0 4.1 1.4 4.1 4.1v16.3c0 2.7-1.4 4.1-4.1 4.1-2.7 0-4.1-1.4-4.1-4.1 0-2.7-1.4-4.1-4.1-4.1-2.7 0-4.1-1.4-4.1-4.1 0-2.7-1.4-4.1-4.1-4.1h-8.1c-2.7 0-4.1-1.4-4.1-4.1v-8.1c0-2.7 1.4-4.1 4.1-4.1 2.7 0 4.1 1.4 4.1 4.1 0 2.7 1.4 4.1 4.1 4.1 2.7 0 4.1-1.4 4.1-4.1 0-2.7 1.4-4.1 4.1-4.1m-175.1 8.2h4.1c2.7 0 4.1 1.4 4.1 4.1 0 2.7 1.4 4.1 4.1 4.1 2.7 0 4.1 1.4 4.1 4.1 0 2.7 1.4 4.1 4.1 4.1 2.7 0 4.1 1.4 4.1 4.1 0 2.7-1.4 4.1-4.1 4.1-2.7 0-4.1 1.4-4.1 4.1 0 2.7-1.4 4.1-4.1 4.1-2.7 0-4.1-1.4-4.1-4.1 0-2.7-1.4-4.1-4.1-4.1-2.7 0-4.1-1.4-4.1-4.1 0-2.7-1.4-4.1-4.1-4.1-2.7 0-4.1-1.4-4.1-4.1 0-2.7 1.4-4.1 4.1-4.1 2.7 0 4.1-1.4 4.1-4.1 0-2.7 1.4-4.1 4.1-4.1m134.3 8.1h4.1c2.7 0 4.1 1.4 4.1 4.1 0 2.7 1.4 4.1 4.1 4.1h16.3c2.7 0 4.1 1.4 4.1 4.1 0 2.7-1.4 4.1-4.1 4.1-2.7 0-4.1 1.4-4.1 4.1v8.1c0 2.7-1.4 4.1-4.1 4.1h-8.1c-2.7 0-4.1 1.4-4.1 4.1 0 2.7-1.4 4.1-4.1 4.1-2.7 0-4.1-1.4-4.1-4.1v-8.1c0-2.7 1.4-4.1 4.1-4.1h8.1c2.7 0 4.1-1.4 4.1-4.1 0-2.7-1.4-4.1-4.1-4.1h-8.1c-2.7 0-4.1-1.4-4.1-4.1v-8.1c0-2.7 1.4-4.1 4.1-4.1m-175 24.3h4.1c2.7 0 4.1 1.4 4.1 4.1v16.3c0 2.7 1.4 4.1 4.1 4.1 2.7 0 4.1 1.4 4.1 4.1 0 2.7-1.4 4.1-4.1 4.1h-8.1c-2.7 0-4.1-1.4-4.1-4.1v-24.4c0-2.7 1.4-4.1 4.1-4.1m12.1 8h12.2c2.7 0 4.1 1.4 4.1 4.1 0 2.7 1.4 4.1 4.1 4.1h16.3c2.7 0 4.1 1.4 4.1 4.1 0 2.7-1.4 4.1-4.1 4.1h-8.1c-2.7 0-4.1 1.4-4.1 4.1 0 2.7-1.4 4.1-4.1 4.1-2.7 0-4.1-1.4-4.1-4.1 0-2.7-1.4-4.1-4.1-4.1h-8.1c-2.7 0-4.1-1.4-4.1-4.1v-8.1c0-2.7 1.4-4.1 4.1-4.1m52.8 8.1h12.2c2.7 0 4.1 1.4 4.1 4.1 0 2.7-1.4 4.1-4.1 4.1-2.7 0-4.1 1.4-4.1 4.1 0 2.7-1.4 4.1-4.1 4.1h-8.1c-2.7 0-4.1-1.4-4.1-4.1 0-2.7 1.4-4.1 4.1-4.1 2.7 0 4.1-1.4 4.1-4.1 0-2.7 1.4-4.1 4.1-4.1m174.9 0h4.1c2.7 0 4.1 1.4 4.1 4.1v24.4c0 2.7-1.4 4.1-4.1 4.1-2.7 0-4.1-1.4-4.1-4.1 0-2.7-1.4-4.1-4.1-4.1-2.7 0-4.1-1.4-4.1-4.1 0-2.7 1.4-4.1 4.1-4.1 2.7 0 4.1-1.4 4.1-4.1v-8.1c0-2.7 1.4-4.1 4.1-4.1m-166.8 8.2h20.3c2.7 0 4.1 1.4 4.1 4.1 0 2.7 1.4 4.1 4.1 4.1 2.7 0 4.1 1.4 4.1 4.1v8.1c0 2.7-1.4 4.1-4.1 4.1-2.7 0-4.1-1.4-4.1-4.1 0-2.7-1.4-4.1-4.1-4.1-2.7 0-4.1 1.4-4.1 4.1 0 2.7-1.4 4.1-4.1 4.1h-16.3c-2.7 0-4.1-1.4-4.1-4.1 0-2.7 1.4-4.1 4.1-4.1 2.7 0 4.1-1.4 4.1-4.1v-8.1c0-2.7 1.4-4.1 4.1-4.1m4.1 8.2v4.1c0 2.7 1.4 4.1 4.1 4.1 2.7 0 4.1-1.4 4.1-4.1 0-2.7-1.4-4.1-4.1-4.1-2.7 0-4.1 1.4-4.1 4.1m48.8-12.3H264c2.7 0 4.1 1.4 4.1 4.1v8.1c0 2.7 1.4 4.1 4.1 4.1h8.1c2.7 0 4.1 1.4 4.1 4.1 0 2.7 1.4 4.1 4.1 4.1 2.7 0 4.1 1.4 4.1 4.1 0 2.7-1.4 4.1-4.1 4.1-2.7 0-4.1 1.4-4.1 4.1 0 2.7-1.4 4.1-4.1 4.1-2.7 0-4.1-1.4-4.1-4.1v-8.1c0-2.7-1.4-4.1-4.1-4.1H264c-2.7 0-4.1-1.4-4.1-4.1 0-2.7-1.4-4.1-4.1-4.1-2.7 0-4.1 1.4-4.1 4.1v8.1c0 2.7-1.4 4.1-4.1 4.1-2.7 0-4.1 1.4-4.1 4.1 0 2.7-1.4 4.1-4.1 4.1-2.7 0-4.1-1.4-4.1-4.1 0-2.7-1.4-4.1-4.1-4.1-2.7 0-4.1-1.4-4.1-4.1 0-2.7 1.4-4.1 4.1-4.1h8.1c2.7 0 4.1-1.4 4.1-4.1 0-2.7-1.4-4.1-4.1-4.1-2.7 0-4.1-1.4-4.1-4.1 0-2.7 1.4-4.1 4.1-4.1h8.1c2.7 0 4.1-1.4 4.1-4.1 0-2.7 1.4-4.1 4.1-4.1m53.2.1h4.1c2.7 0 4.1 1.4 4.1 4.1v8.1c0 2.7-1.4 4.1-4.1 4.1h-16.3c-2.7 0-4.1-1.4-4.1-4.1 0-2.7-1.4-4.1-4.1-4.1-2.7 0-4.1-1.4-4.1-4.1 0-2.7 1.4-4.1 4.1-4.1 2.7 0 4.1-1.4 4.1-4.1 0-2.7 1.4-4.1 4.1-4.1 2.7 0 4.1-1.4 4.1-4.1 0-2.7 1.4-4.1 4.1-4.1 2.7 0 4.1-1.4 4.1-4.1 0-2.7 1.4-4.1 4.1-4.1h16.3c2.7 0 4.1 1.4 4.1 4.1v8.1c0 2.7-1.4 4.1-4.1 4.1-2.7 0-4.1 1.4-4.1 4.1 0 2.7-1.4 4.1-4.1 4.1-2.7 0-4.1-1.4-4.1-4.1 0-2.7-1.4-4.1-4.1-4.1-2.7 0-4.1 1.4-4.1 4.1 0 2.7 1.4 4.1 4.1 4.1m-12.2.2v4.1c0 2.7 1.4 4.1 4.1 4.1 2.7 0 4.1-1.4 4.1-4.1 0-2.7-1.4-4.1-4.1-4.1-2.7 0-4.1 1.4-4.1 4.1m-179 4.1h12.2c2.7 0 4.1 1.4 4.1 4.1V525c0 2.7-1.4 4.1-4.1 4.1h-24.4c-2.7 0-4.1-1.4-4.1-4.1 0-2.7 1.4-4.1 4.1-4.1h16.3c2.7 0 4.1-1.4 4.1-4.1 0-2.7-1.4-4.1-4.1-4.1-2.7 0-4.1-1.4-4.1-4.1 0-2.7 1.4-4.1 4.1-4.1m191.1 8.2h20.3c2.7 0 4.1 1.4 4.1 4.1V533c0 2.7 1.4 4.1 4.1 4.1 2.7 0 4.1 1.4 4.1 4.1 0 2.7-1.4 4.1-4.1 4.1-2.7 0-4.1 1.4-4.1 4.1 0 2.7 1.4 4.1 4.1 4.1 2.7 0 4.1 1.4 4.1 4.1v8.1c0 2.7-1.4 4.1-4.1 4.1-2.7 0-4.1 1.4-4.1 4.1 0 2.7-1.4 4.1-4.1 4.1h-8.1c-2.7 0-4.1 1.4-4.1 4.1v8.1c0 2.7-1.4 4.1-4.1 4.1h-57c-2.7 0-4.1-1.4-4.1-4.1s1.4-4.1 4.1-4.1h8.1c2.7 0 4.1-1.4 4.1-4.1 0-2.7 1.4-4.1 4.1-4.1 2.7 0 4.1-1.4 4.1-4.1 0-2.7 1.4-4.1 4.1-4.1 2.7 0 4.1-1.4 4.1-4.1 0-2.7 1.4-4.1 4.1-4.1 2.7 0 4.1 1.4 4.1 4.1 0 2.7 1.4 4.1 4.1 4.1 2.7 0 4.1 1.4 4.1 4.1 0 2.7 1.4 4.1 4.1 4.1 2.7 0 4.1-1.4 4.1-4.1v-8.1c0-2.7-1.4-4.1-4.1-4.1h-8.1c-2.7 0-4.1-1.4-4.1-4.1 0-2.7-1.4-4.1-4.1-4.1-2.7 0-4.1 1.4-4.1 4.1 0 2.7-1.4 4.1-4.1 4.1-2.7 0-4.1-1.4-4.1-4.1v-8.1c0-2.7 1.4-4.1 4.1-4.1h8.1c2.7 0 4.1-1.4 4.1-4.1v-16.3c0-2.7 1.4-4.1 4.1-4.1h8.1c2.7 0 4.1-1.4 4.1-4.1 0-2.7 1.4-4.1 4.1-4.1M308.8 529v20.3c0 2.7 1.4 4.1 4.1 4.1h16.3c2.7 0 4.1-1.4 4.1-4.1V533c0-2.7-1.4-4.1-4.1-4.1h-16.3c-2.7 0-4.1 1.4-4.1 4.1m-16.3 44.8v4.1c0 2.7 1.4 4.1 4.1 4.1 2.7 0 4.1-1.4 4.1-4.1 0-2.7-1.4-4.1-4.1-4.1-2.7 0-4.1 1.4-4.1 4.1M219.3 529h4.1c2.7 0 4.1 1.4 4.1 4.1 0 2.7 1.4 4.1 4.1 4.1 2.7 0 4.1 1.4 4.1 4.1 0 2.7 1.4 4.1 4.1 4.1 2.7 0 4.1 1.4 4.1 4.1 0 2.7-1.4 4.1-4.1 4.1-2.7 0-4.1 1.4-4.1 4.1 0 2.7-1.4 4.1-4.1 4.1-2.7 0-4.1-1.4-4.1-4.1v-8.1c0-2.7-1.4-4.1-4.1-4.1h-8.1c-2.7 0-4.1-1.4-4.1-4.1 0-2.7 1.4-4.1 4.1-4.1 2.7 0 4.1-1.4 4.1-4.1 0-2.7 1.4-4.1 4.1-4.1m126-.1h12.2c2.7 0 4.1 1.4 4.1 4.1v8.1c0 2.7 1.4 4.1 4.1 4.1 2.7 0 4.1 1.4 4.1 4.1v8.1c0 2.7-1.4 4.1-4.1 4.1-2.7 0-4.1 1.4-4.1 4.1 0 2.7-1.4 4.1-4.1 4.1-2.7 0-4.1-1.4-4.1-4.1v-24.4c0-2.7-1.4-4.1-4.1-4.1-2.7 0-4.1-1.4-4.1-4.1 0-2.7 1.4-4.1 4.1-4.1m-166.7 8.1H199c2.7 0 4.1 1.4 4.1 4.1 0 2.7 1.4 4.1 4.1 4.1 2.7 0 4.1 1.4 4.1 4.1 0 2.7-1.4 4.1-4.1 4.1H199c-2.7 0-4.1-1.4-4.1-4.1 0-2.7-1.4-4.1-4.1-4.1-2.7 0-4.1-1.4-4.1-4.1 0-2.7 1.4-4.1 4.1-4.1m77.3 0h4.1c2.7 0 4.1 1.4 4.1 4.1v8.1c0 2.7-1.4 4.1-4.1 4.1h-8.1c-2.7 0-4.1 1.4-4.1 4.1 0 2.7-1.4 4.1-4.1 4.1-2.7 0-4.1 1.4-4.1 4.1 0 2.7-1.4 4.1-4.1 4.1h-8.1c-2.7 0-4.1-1.4-4.1-4.1 0-2.7 1.4-4.1 4.1-4.1 2.7 0 4.1-1.4 4.1-4.1 0-2.7 1.4-4.1 4.1-4.1 2.7 0 4.1-1.4 4.1-4.1 0-2.7 1.4-4.1 4.1-4.1h8.1c2.7 0 4.1-1.4 4.1-4.1 0-2.7 1.4-4.1 4.1-4.1m-93.7 32.7h12.2c2.7 0 4.1 1.4 4.1 4.1 0 2.7-1.4 4.1-4.1 4.1-2.7 0-4.1 1.4-4.1 4.1v8.1c0 2.7-1.4 4.1-4.1 4.1-2.7 0-4.1-1.4-4.1-4.1s-1.4-4.1-4.1-4.1c-2.7 0-4.1-1.4-4.1-4.1 0-2.7 1.4-4.1 4.1-4.1 2.7 0 4.1-1.4 4.1-4.1 0-2.7 1.4-4.1 4.1-4.1m40.8 16.3h24.4c2.7 0 4.1 1.4 4.1 4.1s-1.4 4.1-4.1 4.1h-24.4c-2.7 0-4.1-1.4-4.1-4.1s1.4-4.1 4.1-4.1m52.9-258.3c0-1.4.7-2 2-2h4.1c1.4 0 2 .7 2 2v4.1c0 1.4-.7 2-2 2h-4.1c-1.4 0-2-.7-2-2v-4.1m16.2 0c0-1.4.7-2 2-2h4.1c1.4 0 2 .7 2 2v4.1c0 1.4-.7 2-2 2h-4.1c-1.4 0-2-.7-2-2v-4.1M260 360.1c0-1.4.7-2 2-2h4.1c1.4 0 2 .7 2 2v4.1c0 1.4-.7 2-2 2H262c-1.4 0-2-.7-2-2v-4.1m32.5 0c0-1.4.7-2 2-2h4.1c1.4 0 2 .7 2 2v4.1c0 1.4-.7 2-2 2h-4.1c-1.4 0-2-.7-2-2v-4.1m-105.7 16.3c0-1.4.7-2 2-2h4.1c1.4 0 2 .7 2 2v4.1c0 1.4-.7 2-2 2h-4.1c-1.4 0-2-.7-2-2v-4.1m32.5 0c0-1.4.7-2 2-2h4.1c1.4 0 2 .7 2 2v4.1c0 1.4-.7 2-2 2h-4.1c-1.4 0-2-.7-2-2v-4.1m81.4 0c0-1.4.7-2 2-2h4.1c1.4 0 2 .7 2 2v4.1c0 1.4-.7 2-2 2h-4.1c-1.4 0-2-.7-2-2v-4.1m-122.1 8.1c0-1.4.7-2 2-2h4.1c1.4 0 2 .7 2 2v4.1c0 1.4-.7 2-2 2h-4.1c-1.4 0-2-.7-2-2v-4.1m48.8 0c0-1.4.7-2 2-2h4.1c1.4 0 2 .7 2 2v4.1c0 1.4-.7 2-2 2h-4.1c-1.4 0-2-.7-2-2v-4.1m-73.2 8.2c0-1.4.7-2 2-2h4.1c1.4 0 2 .7 2 2v4.1c0 1.4-.7 2-2 2h-4.1c-1.4 0-2-.7-2-2v-4.1m16.3 0c0-1.4.7-2 2-2h4.1c1.4 0 2 .7 2 2v4.1c0 1.4-.7 2-2 2h-4.1c-1.4 0-2-.7-2-2v-4.1m81.3 16.2c0-1.4.7-2 2-2h4.1c1.4 0 2 .7 2 2v4.1c0 1.4-.7 2-2 2h-4.1c-1.4 0-2-.7-2-2v-4.1m16.3 0c0-1.4.7-2 2-2h4.1c1.4 0 2 .7 2 2v4.1c0 1.4-.7 2-2 2h-4.1c-1.4 0-2-.7-2-2v-4.1m32.6 16.3c0-1.4.7-2 2-2h4.1c1.4 0 2 .7 2 2v4.1c0 1.4-.7 2-2 2h-4.1c-1.4 0-2-.7-2-2v-4.1m16.2 0c0-1.4.7-2 2-2h4.1c1.4 0 2 .7 2 2v4.1c0 1.4-.7 2-2 2h-4c-1.4 0-2-.7-2-2v-4.1m-40.7 8.2c0-1.4.7-2 2-2h4.1c1.4 0 2 .7 2 2v4.1c0 1.4-.7 2-2 2h-4.1c-1.4 0-2-.7-2-2v-4.1m48.8 0c0-1.4.7-2 2-2h4.1c1.4 0 2 .7 2 2v4.1c0 1.4-.7 2-2 2h-4.1c-1.4 0-2-.7-2-2v-4.1m-154.6 16.2c0-1.4.7-2 2-2h4.1c1.4 0 2 .7 2 2v4.1c0 1.4-.7 2-2 2h-4.1c-1.4 0-2-.7-2-2v-4.1m16.3 0c0-1.4.7-2 2-2h4.1c1.4 0 2 .7 2 2v4.1c0 1.4-.7 2-2 2h-4.1c-1.4 0-2-.7-2-2v-4.1m-8.2 8.2c0-1.4.7-2 2-2h4.1c1.4 0 2 .7 2 2v4.1c0 1.4-.7 2-2 2h-4.1c-1.4 0-2-.7-2-2v-4.1m154.6 0c0-1.4.7-2 2-2h4.1c1.4 0 2 .7 2 2v4.1c0 1.4-.7 2-2 2h-4.1c-1.4 0-2-.7-2-2v-4.1m24.4 0c0-1.4.7-2 2-2h4.1c1.4 0 2 .7 2 2v4.1c0 1.4-.7 2-2 2h-4.1c-1.4 0-2-.7-2-2v-4.1m-170.8 8.1c0-1.4.7-2 2-2h4.1c1.4 0 2 .7 2 2v4.1c0 1.4-.7 2-2 2h-4.1c-1.4 0-2-.7-2-2v-4.1m179 0c0-1.4.7-2 2-2h4.1c1.4 0 2 .7 2 2v4.1c0 1.4-.7 2-2 2h-4.1c-1.4 0-2-.7-2-2v-4.1M178.6 474c0-1.4.7-2 2-2h4.1c1.4 0 2 .7 2 2v4.1c0 1.4-.7 2-2 2h-4.1c-1.4 0-2-.7-2-2V474m179 0c0-1.4.7-2 2-2h4.1c1.4 0 2 .7 2 2v4.1c0 1.4-.7 2-2 2h-4.1c-1.4 0-2-.7-2-2V474m-130.2 24.5c0-1.4.7-2 2-2h4.1c1.4 0 2 .7 2 2v4.1c0 1.4-.7 2-2 2h-4.1c-1.4 0-2-.7-2-2v-4.1m97.7 0c0-1.4.7-2 2-2h4.1c1.4 0 2 .7 2 2v4.1c0 1.4-.7 2-2 2h-4.1c-1.4 0-2-.7-2-2v-4.1m-179 16.2c0-1.4.7-2 2-2h4.1c1.4 0 2 .7 2 2v4.1c0 1.4-.7 2-2 2h-4.1c-1.4 0-2-.7-2-2v-4.1m24.4 0c0-1.4.7-2 2-2h4.1c1.4 0 2 .7 2 2v4.1c0 1.4-.7 2-2 2h-4.1c-1.4 0-2-.7-2-2v-4.1m40.7 8.2c0-1.4.7-2 2-2h4.1c1.4 0 2 .7 2 2v4.1c0 1.4-.7 2-2 2h-4.1c-1.4 0-2-.7-2-2v-4.1m154.6 0c0-1.4.7-2 2-2h4.1c1.4 0 2 .7 2 2v4.1c0 1.4-.7 2-2 2h-4.1c-1.4 0-2-.7-2-2v-4.1M170.5 531c0-1.4.7-2 2-2h4.1c1.4 0 2 .7 2 2v4.1c0 1.4-.7 2-2 2h-4.1c-1.4 0-2-.7-2-2V531m146.4 8.1c0-1.4.7-2 2-2h4.1c1.4 0 2 .7 2 2v4.1c0 1.4-.7 2-2 2h-4c-1.4 0-2-.7-2-2v-4.1m-138.4 8.2c0-1.4.7-2 2-2h4.1c1.4 0 2 .7 2 2v4.1c0 1.4-.7 2-2 2h-4.1c-1.4 0-2-.7-2-2v-4.1m-8.1 8.1c0-1.4.7-2 2-2h4.1c1.4 0 2 .7 2 2v4.1c0 1.4-.7 2-2 2h-4.1c-1.4 0-2-.7-2-2v-4.1m40.7 8.2c0-1.4.7-2 2-2h4.1c1.4 0 2 .7 2 2v4.1c0 1.4-.7 2-2 2h-4.1c-1.4 0-2-.7-2-2v-4.1M341.4 588c0-1.4.7-2 2-2h4.1c1.4 0 2 .7 2 2v4.1c0 1.4-.7 2-2 2h-4.1c-1.4 0-2-.7-2-2V588m24.4 0c0-1.4.7-2 2-2h4.1c1.4 0 2 .7 2 2v4.1c0 1.4-.7 2-2 2h-4.1c-1.4 0-2-.7-2-2V588m-61.1-246.2c2.7 0 4.1 1.4 4.1 4.1v8.1c0 2.7-1.4 4.1-4.1 4.1-2.7 0-4.1-1.4-4.1-4.1v-8.1c.1-2.7 1.4-4.1 4.1-4.1m-130.2 16.3c2.7 0 4.1 1.4 4.1 4.1v16.3c0 2.7-1.4 4.1-4.1 4.1-2.7 0-4.1-1.4-4.1-4.1v-16.3c.1-2.8 1.4-4.1 4.1-4.1m114 8.1c2.7 0 4.1 1.4 4.1 4.1v8.1c0 2.7-1.4 4.1-4.1 4.1-2.7 0-4.1-1.4-4.1-4.1v-8.1c0-2.7 1.4-4.1 4.1-4.1m40.6 24.4h8.1c2.7 0 4.1 1.4 4.1 4.1 0 2.7-1.4 4.1-4.1 4.1h-8.1c-2.7 0-4.1-1.4-4.1-4.1.1-2.7 1.4-4.1 4.1-4.1m-40.6 24.5c2.7 0 4.1 1.4 4.1 4.1v8.1c0 2.7-1.4 4.1-4.1 4.1-2.7 0-4.1-1.4-4.1-4.1v-8.1c0-2.8 1.4-4.1 4.1-4.1m48.8 8.1h8.1c2.7 0 4.1 1.4 4.1 4.1 0 2.7-1.4 4.1-4.1 4.1h-8.1c-2.7 0-4.1-1.4-4.1-4.1 0-2.8 1.4-4.1 4.1-4.1m16.3 16.3h8.1c2.7 0 4.1 1.4 4.1 4.1 0 2.7-1.4 4.1-4.1 4.1h-8.1c-2.7 0-4.1-1.4-4.1-4.1 0-2.8 1.4-4.1 4.1-4.1m-195.3 65.1h8.1c2.7 0 4.1 1.4 4.1 4.1 0 2.7-1.4 4.1-4.1 4.1h-8.1c-2.7 0-4.1-1.4-4.1-4.1 0-2.8 1.4-4.1 4.1-4.1m0 16.2h8.1c2.7 0 4.1 1.4 4.1 4.1 0 2.7-1.4 4.1-4.1 4.1h-8.1c-2.7 0-4.1-1.4-4.1-4.1 0-2.7 1.4-4.1 4.1-4.1m97.6 48.9c2.7 0 4.1 1.4 4.1 4.1v8.1c0 2.7-1.4 4.1-4.1 4.1-2.7 0-4.1-1.4-4.1-4.1v-8.1c0-2.8 1.4-4.1 4.1-4.1m-118-175c0-2.7 1.4-4.1 4.1-4.1 2.7 0 4.1 1.4 4.1 4.1v2c0 1.4.7 2 2 2h2c2.7 0 4.1 1.4 4.1 4.1 0 2.7-1.4 4.1-4.1 4.1H142c-2.7 0-4.1-1.4-4.1-4.1v-8.1zm73.3-4.1h8.1c2.7 0 4.1 1.4 4.1 4.1v8.1c0 2.7-1.4 4.1-4.1 4.1-2.7 0-4.1-1.4-4.1-4.1v-2c0-1.4-.7-2-2-2h-2c-2.7 0-4.1-1.4-4.1-4.1 0-2.7 1.3-4.1 4.1-4.1zm-73.3 24.5h8.1c2.7 0 4.1 1.4 4.1 4.1 0 2.7-1.4 4.1-4.1 4.1h-2c-1.4 0-2 .7-2 2v2c0 2.7-1.4 4.1-4.1 4.1-2.7 0-4.1-1.4-4.1-4.1v-8.1c.1-2.8 1.4-4.1 4.1-4.1zm203.5 48.8h8.1c2.7 0 4.1 1.4 4.1 4.1 0 2.7-1.4 4.1-4.1 4.1h-2c-1.4 0-2 .7-2 2v2c0 2.7-1.4 4.1-4.1 4.1-2.7 0-4.1-1.4-4.1-4.1V468c0-2.8 1.3-4.1 4.1-4.1zM154.2 472h8.1c2.7 0 4.1 1.4 4.1 4.1v8.1c0 2.7-1.4 4.1-4.1 4.1-2.7 0-4.1-1.4-4.1-4.1v-2c0-1.4-.7-2-2-2h-2c-2.7 0-4.1-1.4-4.1-4.1 0-2.7 1.4-4.1 4.1-4.1zm179 16.3h8.1c2.7 0 4.1 1.4 4.1 4.1v8.1c0 2.7-1.4 4.1-4.1 4.1-2.7 0-4.1-1.4-4.1-4.1v-2c0-1.4-.7-2-2-2h-2c-2.7 0-4.1-1.4-4.1-4.1 0-2.8 1.4-4.1 4.1-4.1zM260 561.5h8.1c2.7 0 4.1 1.4 4.1 4.1v8.1c0 2.7-1.4 4.1-4.1 4.1-2.7 0-4.1-1.4-4.1-4.1v-2c0-1.4-.7-2-2-2h-2c-2.7 0-4.1-1.4-4.1-4.1 0-2.7 1.4-4.1 4.1-4.1zm-57 12.2c0-2.7 1.4-4.1 4.1-4.1 2.7 0 4.1 1.4 4.1 4.1v8.1c0 2.7-1.4 4.1-4.1 4.1H199c-2.7 0-4.1-1.4-4.1-4.1 0-2.7 1.4-4.1 4.1-4.1h2c1.4 0 2-.7 2-2v-2zm0 0" clip-path="url(#SVGID_00000062895111832997737680000013924131076789914541_)"/><path d="M206.2 426.3c-4.8 4.8-4.8 12.6-4.8 28v2.7c0 15.5 0 23.2 4.8 28 4.8 4.8 12.6 4.8 28 4.8h2.7c15.5 0 23.2 0 28-4.8 4.8-4.8 4.8-12.6 4.8-28v-2.7c0-15.5 0-23.2-4.8-28-4.8-4.8-12.6-4.8-28-4.8h-2.7c-15.5 0-23.2 0-28 4.8zm6.7 16c.4 17.8 9.3 28.5 24.9 28.5h.9v-10.2c5.7.6 10.1 4.8 11.8 10.2h8.1c-2.2-8.1-8.1-12.6-11.7-14.3 3.7-2.1 8.8-7.2 10-14.2h-7.4c-1.6 5.6-6.3 10.8-10.8 11.3v-11.3h-7.4V462c-4.6-1.1-10.3-6.7-10.6-19.7h-7.8zm0 0" fill-rule="evenodd" clip-rule="evenodd" fill="#0098ff"/><path class="st2" d="M145.1 753.1h15.1v18.6h-3.6v-15.2h-8v15.2H145v-18.6zm21.1 9.3c0 .9.1 1.7.4 2.5.3.7.7 1.4 1.2 1.9.5.6 1.1 1 1.8 1.3.7.3 1.4.4 2.1.4.7 0 1.4-.1 2.1-.4.7-.3 1.2-.7 1.7-1.3.5-.5.9-1.2 1.2-1.9.3-.8.4-1.6.4-2.5 0-.9-.1-1.7-.4-2.5-.3-.7-.7-1.4-1.2-1.9s-1.1-1-1.7-1.3c-.7-.3-1.4-.4-2.1-.4-.7 0-1.4.1-2.1.4-.7.3-1.3.7-1.8 1.3-.5.6-.9 1.2-1.2 1.9-.3.8-.4 1.6-.4 2.5zm14.5 0c0 1.3-.2 2.6-.7 3.7-.5 1.2-1.1 2.2-2 3-.8.8-1.8 1.5-2.9 2-1.1.5-2.3.7-3.5.7-1.2 0-2.4-.2-3.5-.7-1.1-.5-2.1-1.2-2.9-2-.8-.9-1.5-1.9-2-3s-.7-2.4-.7-3.7c0-1.3.2-2.6.7-3.7.5-1.1 1.1-2.2 2-3 .8-.9 1.8-1.5 2.9-2 1.1-.5 2.2-.7 3.5-.7 1.2 0 2.4.2 3.5.7 1.1.5 2 1.2 2.9 2 .8.9 1.5 1.9 2 3 .5 1.2.7 2.4.7 3.7zm16.6 6h2.1v7h-3.6v-3.6h-11.2v3.6H181v-7h1c.3-.2.6-.4.9-.7.3-.3.5-.6.7-1 .2-.4.4-.9.4-1.5l1.5-12.1h11.7v15.3zm-3.6 0v-11.8h-5.2l-1 8.7c-.1.6-.2 1.1-.4 1.5-.1.4-.3.7-.5 1-.2.3-.4.5-.6.7h7.7zm7.7-15.3h15.1v18.6H213v-15.2h-8v15.2h-3.6v-18.6zm33.6 18.7h-3.6v-12.3l-8.3 12.3H220v-18.6h3.6v12.3l8.3-12.3h3.1v18.6zm6-9.4c0 .9.1 1.7.4 2.5.3.7.7 1.4 1.2 1.9.5.6 1.1 1 1.8 1.3.7.3 1.4.4 2.1.4.6 0 1.2-.1 1.7-.3.5-.2 1-.4 1.4-.7.4-.3.7-.7 1-1 .3-.4.5-.8.6-1.2h3.7c-.2.9-.6 1.7-1.1 2.6-.5.8-1.1 1.5-1.8 2.1-.7.6-1.5 1.1-2.5 1.4-.9.4-1.9.5-3.1.5-1.2 0-2.4-.2-3.5-.7-1.1-.5-2.1-1.2-2.9-2-.8-.9-1.5-1.9-2-3s-.7-2.4-.7-3.7c0-1.3.2-2.6.7-3.7.5-1.1 1.1-2.2 2-3 .8-.9 1.8-1.5 2.9-2 1.1-.5 2.2-.7 3.5-.7 1.1 0 2.1.2 3 .5.9.4 1.7.9 2.5 1.5.7.6 1.3 1.3 1.8 2.1s.8 1.7 1.1 2.6h-3.7c-.1-.4-.3-.8-.6-1.2-.3-.4-.6-.7-1-1-.4-.3-.8-.6-1.4-.8-.5-.2-1.1-.3-1.7-.3-.7 0-1.4.1-2.1.4-.7.3-1.3.7-1.8 1.3-.5.6-.9 1.2-1.2 1.9-.1.6-.3 1.4-.3 2.3zm19 5.5l-1.3 3.8H255l7-18.6h3.2l7 18.6h-3.7l-1.3-3.8H260zm1.2-3.2h4.7l-2.4-6.8-2.3 6.8zm9.6-8.2v-3.4h14.5v3.4h-5.5v15.2h-3.6v-15.2h-5.4zm23.4 15.3h-6.8v-18.6h3.6v6.2h3.2c.9 0 1.7.2 2.5.5s1.5.8 2 1.3c.6.6 1 1.2 1.3 2 .3.8.5 1.6.5 2.4 0 .9-.2 1.7-.5 2.4s-.8 1.4-1.3 2c-.6.6-1.3 1-2 1.3-.7.3-1.6.5-2.5.5zm0-9.1H291v5.6h3.2c.4 0 .7-.1 1.1-.2l.9-.6c.3-.3.5-.5.6-.9.2-.4.3-.7.3-1.1 0-.4-.1-.7-.3-1.1-.1-.3-.4-.6-.6-.9-.3-.3-.6-.5-.9-.6-.3-.1-.7-.2-1.1-.2zm11.3-.3c0 .9.1 1.7.4 2.5.3.7.7 1.4 1.2 1.9.5.6 1.1 1 1.8 1.3.7.3 1.4.4 2.1.4.6 0 1.2-.1 1.7-.3.5-.2 1-.4 1.4-.7.4-.3.7-.7 1-1 .3-.4.5-.8.6-1.2h3.7c-.2.9-.6 1.7-1.1 2.6-.5.8-1.1 1.5-1.8 2.1-.7.6-1.5 1.1-2.5 1.4-.9.4-1.9.5-3.1.5-1.2 0-2.4-.2-3.5-.7-1.1-.5-2.1-1.2-2.9-2-.8-.9-1.5-1.9-2-3s-.7-2.4-.7-3.7c0-1.3.2-2.6.7-3.7.5-1.1 1.1-2.2 2-3 .8-.9 1.8-1.5 2.9-2 1.1-.5 2.2-.7 3.5-.7 1.1 0 2.1.2 3 .5.9.4 1.7.9 2.5 1.5.7.6 1.3 1.3 1.8 2.1s.8 1.7 1.1 2.6h-3.7c-.1-.4-.3-.8-.6-1.2-.3-.4-.6-.7-1-1-.4-.3-.8-.6-1.4-.8-.5-.2-1.1-.3-1.7-.3-.7 0-1.4.1-2.1.4-.7.3-1.3.7-1.8 1.3-.5.6-.9 1.2-1.2 1.9-.1.6-.3 1.4-.3 2.3zm22.8 2.6l-3.8 6.8h-4l4.4-7.4c-.7-.3-1.4-.7-1.9-1.3-.4-.3-.6-.5-.9-.8-.2-.3-.4-.6-.5-.9-.2-.3-.3-.7-.4-1.1-.1-.4-.2-.9-.2-1.4 0-.8.2-1.5.5-2.2.3-.7.8-1.3 1.3-1.8.6-.5 1.2-.9 2-1.3.8-.3 1.6-.5 2.5-.5h7.2v18.6H331V765h-2.7zm2.7-3.4v-5h-3.7c-.4 0-.7.1-1.1.2-.3.1-.6.3-.8.5-.2.2-.4.5-.6.8-.1.3-.2.6-.2.9 0 .3.1.6.2.9.1.3.3.6.6.8.2.2.5.4.8.5.3.1.7.2 1.1.2h3.7zm0 0"/><g id="Слой_2"><path class="st0" d="M2370.3 9437.7c-20.3-1.2-37.3-3-57.3-6.3-23.9-3.9-59.5-12.7-73.9-18.2-3.1-1.1-6.1-2.1-6.8-2.1s-4-1-7.2-2.3c-3.3-1.3-7.8-3-9.9-3.9-38.3-14.9-84.8-40-112.3-60.7-47.7-35.9-79.4-67.4-111.5-110.7-8-10.7-9.1-12.7-8.7-15 .1-.6-.3-.7-.9-.2-2.8 1.7-32-49.5-44-76.7-3-6.9-10-24.1-13.2-32.6-28.8-75.9-37.4-170-23.2-254.2 8.1-48.8 22.1-92.5 43.7-136.7 4.8-9.8 10.6-21 12.8-25 2.3-4 4.8-8.2 5.4-9.4 5.4-9.7 24.6-38 33.7-49.9 18.2-23.9 48.5-56.9 50.7-55.5.7.3.8.1.4-.4-.8-1.2 7.7-9.2 25.5-24.3 36.1-30.6 78.1-56.5 124.2-76.5 13.8-6 42.4-16.6 53.6-19.7 27.6-7.7 42.8-11.1 70.1-15.7l14.5-2.4 279.4-.3 279.3-.3v549.1l-2.8 19.2c-5.3 37.2-14.2 73.4-25.1 101.5-1.9 4.9-3.8 10.1-4.3 11.7-5.1 15.6-22.6 51-36.1 73.6-3 5.1-5.8 9.7-6 10.2-.3.9-10.1 15.3-17.2 25.7-4.4 6.4-27.6 35.1-33.8 42-22.2 24.5-47.4 47.5-71.8 65.8-14.7 10.9-45.4 31.7-46.9 31.7-.2 0-2.4 1.2-4.8 2.7-8.8 5.6-36.7 19.6-51.3 25.7-8.2 3.4-16.6 7-18.6 7.9-1.9.9-4 1.6-4.7 1.6s-3.3 1-5.9 2.1c-9.6 4.3-37.6 12.3-63.7 18.3-36.7 7.9-93.4 12.6-131.4 10.2zm67.2-12.2c16.9-1.4 41.7-4.9 54.6-7.8 5.2-1.2 11.2-2.4 13.3-2.8 9.5-1.7 48.4-13.1 57.8-17 1.6-.7 8.8-3.6 16.1-6.3 45.7-17.7 97.3-49.4 139.6-85.6 2.1-1.8 11.9-11.3 21.8-21.1 18.2-18.1 33-34.8 43.6-49.2 3.3-4.3 6.3-7.8 6.8-7.4.4.2.9-.1.9-.9s4.3-7.8 9.7-15.8c10-14.9 18-27.9 24.9-40.6 2.1-4 4.3-8 4.8-8.9 8.1-14.3 24.7-54.2 30.7-73.9 1.6-4.9 3.2-9.4 3.8-10.1s.8-1.4.4-1.8c-.3-.3.3-3.8 1.6-7.7 7.3-24.1 14.5-64.7 16.8-96.6.7-9.3 1.1-110.4 1.1-269.9v-254.9l-265.4.4-265.5.3-20.6 2.9c-59.5 8.6-104.5 22.1-154.6 46.7-24.1 11.9-40.6 21.3-60.6 35-11.2 7.7-31.2 22.9-36.7 27.8-1.2 1.1-7.7 6.8-14.5 12.8-22.9 20-45.6 44.9-66.3 72.6-7.8 10.3-11.5 15.8-20.5 30-1.9 3.1-4.4 7.1-5.7 8.9-3 4.9-5.7 9.6-7.8 13.7-1 1.9-2.2 3.6-2.6 3.6-.4 0-.9.7-.9 1.4-.1 2.4-13.2 26.3-14.1 25.6-.4-.4-.4 0-.1 1 .4 1-.2 3.7-1.4 6.1-3 5.8-14.7 35.4-14.7 37 0 .7-.6.9-1.3.4-.7-.4-.9-.3-.6.3.4.7-.4 4.9-1.9 9.3-2.4 7.6-5.8 19.3-10 34.4-10.6 38.4-16.8 101.9-14.1 143.4 2.7 40.8 5.9 62.4 14.8 98.4 3.2 13 15 50 18 56.7.9 1.9 2.9 6.6 4.6 10.6 12.3 29.7 29.9 61.9 47 86.4 4.4 6.3 7.8 12.1 7.3 12.8s-.3.9.4.4c.7-.4 2.8 1.6 4.8 4.6 16.7 24.1 57.2 66.1 85.5 88.7 10.8 8.6 9.2 7.4 19.5 14.8 31.4 22.5 65.8 41.9 98.4 55.2 4 1.6 8.9 3.7 11 4.7 5.4 2.4 49.8 17 51.9 17 1 0 5.3 1 9.7 2.1 19.8 5.3 52.4 10.6 76.4 12.3 9.5.7 19.5 1.3 22.2 1.6 7.7.6 44.2-.4 60.1-1.6z" transform="matrix(.1 0 0 -.1 0 1000)"/><path class="st0" d="M2384.1 9409.3c-1.7-1.1-3.8-3.2-4.8-4.9l-1.8-3 4.6-.8c3.6-.6 4.9-.3 5.9 1.1 2 2.8 7.8 1.7 8.2-1.6.4-3.1-1.6-5.8-4.3-5.8-1.6 0-2.1-.8-2.1-3.3 0-2.8.4-3.3 2.7-3.3 4.8 0 7.5-4.4 5.6-9.3-.9-2.3-7.5-2.3-9.3-.1-1.6 1.9-9.5 2.3-10.6.6-1.2-2 7.7-10 11.2-10.1 9.3-.4 12.1.2 15.8 4 2.9 3.2 3.6 4.8 3.6 8.8s-.6 5.6-3 7.8c-2.8 2.7-2.9 2.9-1.1 4.9 3 3.2 2.4 10.5-.9 13.6-3.9 3.4-15.2 4.3-19.7 1.4zm45.3-1c-6.6-2.3-10.3-6.8-12.3-14.5-3.4-13.6 2.1-24.6 13.7-27.1 14.2-3 22.8 5.4 22.9 22.3 0 7.4-.4 9-3.1 12.9-2.4 3.7-4.1 4.8-9.5 6.2-7.5 2.2-6.3 2.2-11.7.2zm11.9-10.3c2.2-2.1 2.7-12.3.7-17.9-1.2-3.7-5.9-6-9.7-5.1-6.8 1.8-7.8 17-1.6 23.2 3.1 3.3 6.8 3.2 10.6-.2zm-95.1 8.9c-1.8-.4-3.3-5.8-5.9-19.2-.3-2.1-1.4-7.1-2.3-11.1s-1.9-8.3-2.2-9.7c-.4-2.3-.1-2.6 3.7-2.6 5.4 0 6.7.9 7.2 5 .3 3.3.4 3.3 7.7 3.7 7.1.3 7.5.2 8.1-2.6.7-2.7 1.2-2.9 5.7-2.7 6.8.4 6.9-.8-3 21-1.9 4-4.6 9.9-6 13.1-2.4 5.6-2.7 5.8-6.8 5.7-2.4 0-5.2-.2-6.2-.6zm9-18c1.2-3.3 2.1-6.2 1.9-6.4-.2-.2-2.2-.8-4.4-1.1l-4-.7.7 6.6c1 11.6 1.9 11.8 5.8 1.6zm109.2 5c-1.2-6.8-3-16.2-3.8-20.9l-1.6-8.7h2.9c1.6 0 7-.8 12-1.8s10.5-1.4 12-1.1c8 2 11.1 12.6 5.4 18.6l-2.9 3 2.4.8c3 .9 5.6 6.8 4.8 10.8-.9 4.6-4.7 7.1-13.1 8.7-4.2.8-9.6 1.8-11.8 2.2l-4.1.8-2.2-12.4zm20.1.1c2.8-4.3-.6-7.9-6.2-6.8-4.3.8-4.3.8-3.3 6 .8 3.3.9 3.4 4.8 2.8 2.2-.4 4.3-1.3 4.7-2zm-2.1-15.8c2.2-.9 2.6-5 .6-7-1.4-1.4-5.4-1.7-9.6-.7-2.2.7-2.4 1.2-1.8 4.8.4 2.2.9 4.3 1.1 4.7.5.8 6-.3 9.7-1.8zm-169.9 23.4c-.6-.2-5-1.2-9.7-2.2-10-2.2-9.7-1.3-6.6-15.8 1.2-5.3 2.8-12.8 3.4-16.5 2.1-10.1 2.4-10.6 7.9-9.2 4.3 1.1 4.6 1.3 3.8 4.7-2.4 11.3-2.6 11.1 4.3 13.2 9 2.9 11 5.3 10.5 13.3-.3 5-1.1 7-3.2 9.1-2.5 2.6-7.9 4.4-10.4 3.4zm1.8-9.5c1.3-.8 2.1-2.3 2.1-4.2 0-2.4-.8-3.6-3.9-5-3-1.4-4.1-1.6-4.3-.4-.3.7-1 3-1.7 5.1s-1.2 3.9-1.2 4.1c0 .2 2.3.8 5.9 1.4.5 0 1.9-.4 3.1-1zm193.8-15.6c-6.4-9.8-11.7-18-11.5-18.1.2-.2 2.4-1 4.8-1.7 3.7-1 4.6-.9 5.8.8.9 1 1.6 2.2 1.6 2.8 0 1.1 2.2 1 8.9-.4 5.3-1.1 5.6-1.3 5.6-4.9 0-3.4.4-3.9 4.2-4.9 6.2-1.8 7.2-1.6 6.6 1.3-.3 1.3-1 11-1.4 21.6l-.8 19-4.8 1.2c-2.7.7-5.3 1.2-5.9 1.2-.8 0-6.5-8-13.1-17.9zm15.1-1.5v-8.1l-4.4 1.1c-4.9 1.3-5.3 2-2.8 4.1.9.8 1.7 1.9 1.7 2.6 0 1.1 4.6 8.6 5.3 8.6.1-.1.2-3.7.2-8.3zm-259.8 14.5c-6.2-1.9-11.7-3.8-12-4.2-.7-.6 10-38.2 11-39.5.4-.6 19 5.3 22.8 7.2 7.5 3.7 8.2 14.9 1.4 20.3-3.2 2.6-10.9 2.8-17.1.6l-4.2-1.6-1.3 4.3c-.7 2.4-1 4.4-.8 4.7s4.4 1.4 9.3 2.9c4.9 1.3 9 2.6 9.1 2.7 0 .1-.1 1.6-.4 3.3-.8 3.9-3.1 3.8-17.8-.7zm16.9-24c1.2-3.8-.4-6.2-4.9-7.6-5.6-1.7-5.3-1.8-6.1 1.3-.3 1.4-.9 3.4-1.3 4.3-.3 1.1.4 2 2.6 2.8 5.1 1.9 8.9 1.6 9.7-.8zm269.2 16.5c-.3-1.9-.7-3.9-.7-4.2 0-.4 2.2-1.7 5-2.9 3.9-1.6 4.9-2.4 4.3-3.8-.9-2.1-5.3-14-8.2-22-2.3-6.4-2.1-6.9 4.6-8.4 3.3-.8 3.6-.3 8 12 6.2 17.3 6.7 17.8 13.2 14.3 3.8-1.9 4.4-1.4 6.2 3.7l1.1 3.4-15.2 5.7c-8.3 3.1-15.8 5.7-16.5 5.7s-1.4-1.6-1.8-3.5zm-326.5-5.8c-5.6-1.9-12.2-8.9-12.5-13.2-.8-15 7.9-28.7 18.5-28.7 6.8 0 12.5 2.2 16.5 6.3 3.4 3.6 3.7 4.3 3.7 11.2-.1 17.1-12.8 29-26.2 24.4zm11-11.2c3.1-3.2 5.9-12.5 5.1-16.3-1-4.6-8-6.9-11.8-4-3 2.2-6.6 10.5-6.6 15.1 0 3.3.7 4.9 2.4 6.1 3.7 2.6 8 2.2 10.9-.9zm350.1-13c-4.7-9.8-8.6-18.3-8.6-18.8 0-.9 24.8-13.3 26.6-13.3.8 0 3.9 6.7 3.3 7.1-.2.2-4.1 2.2-8.5 4.4s-8.1 4.6-8.1 5.2c0 .6.8 2.6 1.7 4.3l1.8 3.3 7.7-3.9c8.8-4.4 9.3-4.6 8.5-2.1-.3.9-.2 1.4.3 1.1.9-.6 2.3 1.7 2.3 3.7 0 .6-3.2 2.2-7.2 4-5.9 2.4-7.2 3.4-7.2 5.6 0 2.9 3.2 6.9 4.3 5.2.7-1 14.8-8.2 15.1-7.8 0 .2 1 1.8 2.1 3.4 1.1 1.8 1.8 3.3 1.6 3.4-.8.6-26.6 12.9-26.8 12.9s-4.3-7.8-8.9-17.7zm-397.2 6.7c-4.2-2.4-10.1-5.4-13-6.7-4.9-2.2-5.1-2.6-4-5 .7-1.4 1.8-2.7 2.3-2.7.7 0 .9-.3.4-.7-.3-.4 1.2-4.3 3.6-8.7 2.3-4.3 5.9-11.1 7.9-15.1 2.1-4 3.8-7.3 3.9-7.6.1-.1 5.9 2.8 12.8 6.4 7 3.7 13.1 6.7 13.6 6.7 1.2 0 1.1.6-.9 4.9l-1.9 3.8-8.2-4.3c-4.4-2.3-8.6-4.3-9.1-4.3-.6 0-1.9 1.7-2.9 3.6-2.1 4.2-1.9 4.4 8.1 9.6 3.1 1.6 5.8 3.2 5.8 3.6 0 .3-1 1.8-2.1 3.2l-2 2.6-6.8-3.4c-8.2-4.1-9.6-4.2-11.1-.8-1.4 3.2-1.2 3.6 8.5 8.3 6.8 3.4 7.8 4.4 6.1 6.1-.6.4-1 1.3-1 1.9-.1.6-.2 1.6-.3 2.1-.4 1.6-1.2 1.3-9.7-3.5zm440.3-16.3c-9.6-16.6-11.9-19.5-15.1-19-2.3.3-3.3-.2-4.8-2.6-1.1-2-1.4-3.3-.7-3.8.6-.3 1.1-.3 1.1 0s1.1-.3 2.4-1.7c2.8-2.6 8.2-2.9 11.1-.7 2.3 1.8 5.7 6.6 10.8 15.5 2 3.4 3.9 6.3 4.2 6.3 1.1 0 8.1-4.7 8.1-5.3 0-.4-1.2-2.6-2.7-4.7-3.4-5.2-13.1-22.3-12.7-22.6.2-.1 2-1.4 4-2.8 2.1-1.4 3.9-2.4 4-2.2.2.1 4 6.3 8.5 13.7 4.4 7.3 9.2 15.2 10.7 17.5l2.7 4.2-4.1 2.6c-2.3 1.4-5.7 3.4-7.6 4.6-3.8 2-6.4 3.7-10.8 6.6-1.6 1-3.3 1.9-3.9 1.9-.4 0-2.8-3.3-5.2-7.5zm-475.7-3.2l-4.2-2.8 8.5-12.2c4.7-6.7 8.7-12.8 9-13.6.6-1.6-5.7-5.7-7.2-4.8-.6.4-3.9 5.2-7.5 10.7-3.6 5.6-6.9 10-7.3 10s-.9.7-.9 1.6c0 3-2.3 3.1-6.1.4-2.1-1.3-3.9-2.9-3.9-3.2 0-.3 4-6.4 8.8-13.5l8.8-12.8-3.2-2.4c-1.8-1.3-3.7-2.2-4.2-1.9-.4.3-2.3 2.7-4.1 5.3-1.8 2.7-3.7 5.3-4.3 6.1-.6.7-2.6 3.8-4.4 6.9-1.8 3.1-4 5.9-4.8 6.2-.9.3-3-.4-4.8-1.8-2.6-1.8-3.1-2.9-2.6-4.7.4-1.3 1.1-2.7 1.6-3 .7-.4 3.2-4.2 16.5-24.2 3.4-5.2 4.1-5.7 5.7-4.2 1 .9 9.3 6.7 18.5 12.8l16.7 11.2 2.9-3.6c2.9-3.4 3-3.6 5.9-1.7 1.6 1.1 2.9 2.2 2.9 2.4 0 .3-2.1 3.8-4.7 7.8-3.1 4.7-5.1 6.8-5.8 6.1-.7-.7-1.4-1.1-1.9-1.1-.4 0-4.4 5.3-8.9 12-11 16.2-10 15.5-15 12zm514.6-15.4c-1.6-2.1-2.6-4.4-2.1-5.2.4-.7.3-.9-.3-.6-1.1.7-2.2-.6-9.8-11.5-2.3-3.3-4.6-6.3-4.9-6.7-.4-.3-1.6-1.8-2.4-3.3-1.8-2.8-1.8-2.8 7.8-9.7 10.1-7.4 14.3-9 19.3-7.1 3.9 1.6 7.5 7.3 7.5 12.5 0 4.7-2.4 8.2-8.8 12.6l-4.4 3.1 4.9 6.8c2.8 3.7 4.9 6.8 4.7 6.9-.1 0-2 1.4-4.3 3.1l-4 2.9-3.2-3.8zm1.8-25.2c3.6-2.4 4.2-6.6 1.6-8.8-1.9-1.6-5.8-.6-9.1 2.4l-2.4 2.2 2.3 3.2c2.8 4.1 3.4 4.1 7.6 1zm-572.2-1.3c-4.3-3.8-9.6-8.3-11.6-10l-3.8-3.1 4.4-4.7c2.4-2.6 6.6-7.4 9.3-10.8 2.7-3.3 6.9-8.2 9.3-10.9l4.4-4.8 9 7.8c9.8 8.4 12.2 12.5 11 17.8-.9 4.2-7.8 10.1-11.7 10.1-2.6 0-7.3-2.4-13.7-7-3.1-2.2-5.2-1.8-7.3 1.7-1.3 2.1-1.2 2.7.7 4.1 1.1 1 4.6 3.9 7.6 6.4l5.6 4.8-2.8 2.7-2.8 2.8-7.6-6.9zm21.3-22.4c.2-2.6-.6-4-3.1-6l-3.3-2.6-2.8 2.6c-3.3 3.1-3.3 4-.2 7.3 1.8 1.9 3.4 2.6 5.9 2.3 2.7-.3 3.3-.9 3.5-3.6zm580.7 17c-10.5-11.6-11.1-12.5-15.9-17.6l-4.2-4.7 3.7-3.8 3.8-3.9 5.3 6.2c3 3.3 6 6.1 6.8 6.1.7 0 3.2-1.9 5.6-4.3l4.2-4.3-5.7-5.9c-3.1-3.3-5.6-6.2-5.6-6.6 0-.3 1.8-2 4-3.9l3.9-3.2 2.2 2.7c1.2 1.6 5.6 6.4 9.6 11 4.1 4.4 9.3 10.2 11.6 12.8l4.2 4.6-4 3.4-4 3.4-4.6-5.1c-2.6-2.8-4.8-5.3-4.9-5.6-.6-.8-9.2 8-9.2 9.3 0 .6 2 3.3 4.3 6l4.3 4.8-3.7 3.2c-2 1.8-3.9 3.2-4.2 3.2-.3.2-3.6-3.4-7.5-7.8zm-633.2-23.9c-15.2-8-15.7-24.1-1-35.4 9.3-7 17.9-6.7 25.5 1.2 8.2 8.4 8.1 16.8-.3 26.1-8.1 9.1-16.8 12-24.2 8.1zm10.5-9.7c5-2.7 10.1-9.2 10.1-12.9 0-4.2-3.6-7.8-7.7-7.8-3.6 0-11.5 5.7-13.3 9.8-1.9 3.9-1.4 7.8 1 10.2 2.7 2.7 5.7 2.8 9.9.7zm652.1-7.1c-10.6-4.7-19.2-8.9-19.2-9.2 0-.3 1.4-2.2 3.2-4.2l3.3-3.7 3.3 2c3.3 2 3.3 2 5.8-1.1 1.3-1.8 3.4-4 4.7-5.1 2.1-2 2.1-2.1.1-5.4-2-3.4-2-3.4 1.2-6.8 1.8-1.8 3.6-3.3 4-3.3.7 0 5.9 8.8 16.3 27.8 1.4 2.8 3.1 5.4 3.7 6.1.6.6 1 1.7 1 2.4 0 1.4-6.4 9.2-7.7 9.2-.3 0-9.2-3.9-19.7-8.7zm16.3-3c0-.9-8-12.8-8.7-12.8-.8 0-5.8 4.9-5.8 5.8 0 .4 2.9 2.3 6.4 4.1 6.4 3.3 8.1 3.9 8.1 2.9zm19.5-18.4c-1.2-.4-3.4-2.2-5-3.9-2.2-2.3-2.8-4-2.6-7.9.1-4.2-.1-4.8-1.4-3.7-1.8 1.4-9.6.8-15.6-1.4l-3.6-1.2 3-4.2c1.6-2.3 3.4-4.2 4-4.3.7 0 4.9.7 9.5 1.6 8 1.6 11.1 1.1 11.1-1.7 0-.6-3-3.2-6.7-5.9l-6.8-4.9 3.1-3.7c1.7-2.1 3.1-4 3.3-4.2.2-.4 5.3 3.2 16.9 12.1 3.6 2.8 8.6 6.6 11 8.3 2.6 1.9 4.7 3.8 4.7 4.3 0 1.6-11 16-14.7 19-3.2 3-6.2 3.4-10.2 1.7zm10.6-13.4l2.4-3.4-2.9-2.7c-3.4-3.1-3.9-3.2-6.6-.8-1.9 1.8-2.8 8.1-1.2 9.6 1.9 1.8 6 .5 8.3-2.7zm-785.7-49c-8.2-15-8.8-18.1-4-22.9 4.1-4.1 9.3-5.2 13.8-3 4.2 2.1 4.1 2.1 4.1-.4 0-1.8 9.5-15.7 10.7-15.7.4 0 4.9 9 4.9 10 0 .3-2.2 3.8-5 7.6-7.8 10.7-6.1 13.9 4.1 8.1 3.3-1.9 6.6-3.4 7.1-3.4.6 0 2.1 1.9 3.4 4.2l2.3 4.2-18 9.7c-9.9 5.3-18.2 9.7-18.6 9.7s-2.5-3.8-4.8-8.1zm13.9-9.9c0-2.6-4.2-7.7-6.6-7.7-2.3 0-4.6 2.1-4.6 4.2 0 .9.8 3.2 1.7 5.2l1.8 3.6 3.8-1.8c2.1-1 3.8-2.5 3.9-3.5zm-31.3-25.4c-8.6-18.2-9.2-23.2-4.2-27.9 4.6-4.3 8.1-4.7 14-1.6l4.9 2.6v-2.8c0-1.9 1.9-4.9 5.8-8.9l5.7-6 2.1 4.6c1.1 2.6 2 5.1 2 5.7 0 .6-2.4 3.9-5.6 7.3-3.2 3.7-5.6 7.3-5.6 8.8 0 3.1.6 3.1 6.8.4 9-3.9 9.6-3.9 11.5-.2 1 1.9 1.8 4 1.8 4.9 0 .8-5.4 3.7-13 6.8-7.2 3-15.7 6.4-18.7 7.9l-5.7 2.4-1.8-4zm9.5-10.3c2.6-1.2 2.9-1.9 2.3-4.7-.8-4.4-2.6-6.2-6.1-6.2-3.9 0-4.9 2.3-3.2 7.9 1.5 4.6 2.3 5 7 3zm846.3 3.3c-20.9-7.9-29.5-11.6-29.5-12.6 0-.7 2.4-7.3 5.4-15 2.9-7.7 6.8-17.6 8.5-21.9 1.7-4.4 3.1-8.1 3.3-8.1 1.4 0 6.1 2.8 6.1 3.6 0 .6.6.7 1.1.3.7-.3 4.2.6 8.1 2 3.8 1.6 10.6 4.1 15 5.9 4.3 1.7 8 3.7 8 4.2 0 .7-1 2.8-2.2 4.8-2.4 4.1-.9 4.3-20.6-3.4-5.4-2.2-10.2-4-10.6-4-.7 0-3.3 6.7-3.3 8.1 0 .4.9.8 2 .8s2.4.4 3.1 1c.9.9 5.1 2.6 19.1 7.6 4.8 1.7 4.9 1.8 4.1 5.8-.9 4.7-1.4 5.7-2.9 5.7-.6 0-6.8-2.2-13.9-5-7-2.8-13.3-5-14.1-5-1.6 0-4.3 6.4-3.4 7.9.3.6 1.2 1 1.9 1 .8 0 7.1 2.2 14.1 5 13.6 5.1 13.5 5.1 10.8 11.6l-1.3 3.2-8.8-3.5zm-872.2-34.3c-1.9-5.6-1.6-7.3 1.8-8.2 1.7-.3 4.7-1.4 6.7-2.2l3.7-1.6-1.7-4.8c-1-2.7-1.9-5.3-2.2-6.1-.4-1.3-2-1-12.3 2.3-2 .6-2.6 0-3.7-3.9-.8-2.6-1-5-.4-5.4.4-.4 6.1-2.4 12.6-4.4 6.4-1.9 14.8-4.6 18.7-5.8 3.9-1.2 7.2-2 7.3-1.9.6.7 2.9 7.9 2.9 8.9 0 .6-3.6 2-7.9 3.3-7.5 2.2-7.8 2.6-7.1 5.1.3 1.6 1 4.3 1.3 6.1.3 1.8 1.2 3.6 1.9 3.8.7.2 4.2-.6 7.8-1.8 3.7-1.2 7-2.2 7.5-2.2.4 0 1.6 2.2 2.4 4.8l1.7 4.9-18 5.6c-9.8 3.1-18.7 6-19.7 6.3-1.5.6-2.3-.2-3.3-2.8zm895.6-23.4c-9-2.1-17.8-4.8-19-5.7-.7-.4-1.4-.6-1.8-.2-.3.3-3.4-.2-7-1.2-5-1.6-6.1-2.2-5.6-3.7.4-1.1 1-3.2 1.3-4.9.3-1.8.8-3.1 1-3.1.3 0 4 1 8.2 2.1 7.5 2.1 7.8 2.1 7.8.1 0-1.1-1.8-3.4-4-5.1-10.5-8.4-9.7-7.1-8.2-13 .8-2.9 1.7-5.2 2-5.2.9 0 10.6 8 13.3 11.1 1.3 1.6 2.8 3.7 3 4.7.6 1.7 1 1.7 3.7.2 1.7-.9 4.3-1.6 6-1.6 1.8 0 3.8-1 5.1-2.8 1.8-2.2 2.7-2.6 5.3-1.8 3.6 1 3.7 2.6.8 8.7-1.7 3.7-2.9 4.2-12.2 5.4-7.9 1-7.7 3.2.6 5 8.8 1.9 8.9 1.9 7.8 7.4-1.1 5.2-1.2 5.2-8.1 3.6zm-909.9-26.8c-.8-3.9-2-10.5-2.9-14.8-.9-4.2-1.4-8-1.1-8.4.2-.4 2.8-1.1 5.7-1.4 5.2-.8 20.8-5.4 23.2-7.1.8-.4 1.4-1.8 1.7-3 .3-1.8 2-2.4 8.6-3.8 4.4-.8 8.3-1.3 8.6-1 .3.2.9 2 1.2 3.9.7 3.2.4 3.4-3 4.2-5.9 1.2-5.7-.7-2 18.2l1.3 7 4.8-.7c4.6-.6 4.8-.4 5.4 2.7 1 4.4.3 5.1-5.2 6-2.7.4-6.4 1-8.3 1.3-3 .6-3.7.3-3.7-1.2 0-1.4-.7-1.7-3-1.2-1.8.3-8.5 1.6-15 2.9-6.6 1.2-12.6 2.6-13.5 2.9-1.2.4-1.9-1.2-2.8-6.5zm25.1-8.9c6.3-1.3 6.8-2.2 4.7-10l-1.2-4-8.9 3.2c-4.9 1.8-9.8 3.2-11 3.2-2.6 0-2.6.2-1 6l1.2 4.2 5.1-.7c2.9-.2 7.9-1.1 11.1-1.9zm875.8-6.3c-4.8-1.2-11-6.2-12.7-10.1-.8-2-1.2-6-.9-9.4 1.1-13.9 13.5-20.6 28.8-15.6 7.5 2.4 9.7 4.2 12.3 10.5 3.9 8.7.2 19.6-8 23.7-3.9 2-13.1 2.3-19.5.9zm18.2-11.6c5.4-4.9 1.2-11.9-8.3-13.9-6-1.3-9.9-.8-12.8 1.8-2.7 2.2-2.6 8.2.2 10.8 4.7 4.2 16.7 5 20.9 1.3zm-926.5-14.2c-.7-2.8-2.8-27-2.4-27.3.2-.3 27.5-3.4 34.9-4 5.2-.4 5.9-.2 6.3 1.9 1 4.4 2.8 26.5 2.1 27.5-.3.6-2.2 1-4.3 1h-3.7l-.8-8.6c-1-11.6-.9-11.6-5.2-10.8-2 .4-4 1-4.4 1.4-.3.3-.3 4.3.1 8.8.6 6.3.4 7.9-.7 7.6-.8-.3-1.4-.1-1.4.4 0 .7-1 1.1-2.1 1.1-1.8 0-2.2-1.1-2.9-5.8-1.3-11.7-1.6-12.1-4.8-11.8l-3 .3.3 9.8c.1 7.1-.1 9.7-1.1 9.7-.8 0-2.6.3-3.9.7-1.9.6-2.5.1-3-1.9zm898.9-21.4c0-3.6.7-5.8 2.6-7.9 2.7-3.2 6.1-3.7 21.9-2.8l8.3.3.3-5 .3-5-7.6-.7c-4.1-.4-10.8-.8-14.8-.8-9.3 0-10-.6-9.2-6.6l.7-4.8 10.7.7c5.9.3 15.1 1 20.6 1.3l9.9.7-.8 10.1c-.3 5.4-.7 12.5-.7 15.5v5.6l-16.9-.4c-16.9-.3-17-.3-17.3 2.2-.3 2-1.1 2.4-4.2 2.4-3.8 0-3.8 0-3.8-4.8zm-897.4-19.1c-4.1-2.2-5.4-6.9-5.4-18.5v-9.9h13.1c7.1 0 16.3-.3 20.3-.7l7.5-.8.3 5.8.4 5.7h-16.1v6.6c0 9.2-2.8 12.6-11.2 13.1-3.9.3-7-.1-8.9-1.3zm10.8-9.2c1.2-.7 2-5.2 1.7-8.6-.1-.7-2.2-1-5.1-.8-4.8.4-5 .6-5 4 0 2 .6 4.1 1.3 4.9 1.4 1.5 5.2 1.8 7.1.5zm888.9-15.5c0-5 .3-5.6 2.8-6.2 2.6-.7 2.8-1.1 2.8-7.8 0-6.9-.1-7.1-3.2-7.7-2.9-.7-3.2-1.1-3.7-6-.3-2.9-.4-5.4-.3-5.6.1-.2 29.6 8.1 36.3 10.3 5.4 1.8 6.6 3.3 6.6 10 0 3-.6 3.6-5.2 5.1-3 1-8.8 3.1-13.1 4.8-4.2 1.6-10.2 3.9-13.3 5-3 1.1-6.4 2.3-7.5 2.8-2 .7-2.2.1-2.2-4.7zm21.5-11.6c-.2-.3 1.6-1 4-1.4 2.4-.4 4.4-1.2 4.4-1.8 0-.9-.9-1.2-8.6-2.7-1.8-.3-4-.9-5-1.2-1.7-.4-2 .1-2 3.9 0 4.3.1 4.4 3.8 4.2 2.2-.1 3.7-.6 3.4-1zm-899.8-5.3c-1-3.9-.9-4.4.8-4.4 3.6 0 6.8-3.3 6.8-7 0-2-.4-4.1-.9-4.9-1.3-2.2-6.7-3.7-13.1-3.7-5 0-6.6.4-8.8 2.8-3.4 3.3-3.6 6.1-.1 9.3 2.3 2.2 2.6 3 1.6 6.6-.7 2.2-1.2 4.2-1.4 4.4-.1.2-2-.8-4.2-2-9.7-5.8-8.8-23.3 1.6-29.5 5.7-3.3 17.6-3.1 24.9.6 6.9 3.4 9.9 8.2 9.7 15.7-.1 6.7-2.6 11.6-7.2 14.3-5.9 3.5-8.3 3-9.7-2.2zm29.8-108.9c-.9-.6-6.4-2.6-12.2-4.4-5.8-2-11.6-4-12.8-4.6-1.2-.6-4-1.6-6.2-2.2l-4-1.2 3.1-9.4c5.4-16.1 6.9-17.8 14.6-18 5.1-.2 10.5 3.9 11.5 8.7.8 3.6 1.7 4 3.6 2.1 1.1-1.1 16.9-3.4 17.9-2.7.1.1-.6 2.4-1.7 5.3-2 5.3-3.9 6.3-12.1 6.3-5.3 0-9.3 1.8-9.3 4.3 0 1.7 1.7 2.7 7.7 4.4l7.8 2.3-1.8 5c-1.8 5.1-3 5.9-6.1 4.1zm-14-21.7c1.3-5-.1-7.9-3.9-7.9-1.9 0-3.2 1.1-4.6 3.9-2.7 5.4-2.4 6.2 1.7 7.4 5 1.8 5.7 1.4 6.8-3.4zm16.3-25.7c-7.7-7-14.9-13.8-16-14.9-2.1-2-2.1-2.1.3-7.2l2.4-5.2 6.3.7c3.4.3 11.6 1.2 18 1.8 16.9 1.6 19.2 2.1 18.3 4.3-.4 1-1.2 3.1-1.9 4.8-.9 2.6-1.4 2.9-4.8 2.3-3.7-.6-3.9-.4-6.9 5.8l-3.1 6.3 3 2.3 2.9 2.4-2.3 4.7-2.4 4.8-13.8-12.9zm8.4-11.2c.9-2.2 1.6-4.1 1.3-4.3-.9-.7-14.6-2.9-15-2.3-.3.3 1 1.9 2.9 3.6 7.2 6 8.5 7 8.8 7.1.2-.1 1.1-1.8 2-4.1zm20.1-17.3c-6.1-8.3-8.8-13.1-8.2-15.2.6-2.3-2-4.1-3.2-2.2-.3.7-2.7.8-5.6.3-3.9-.6-5.4-.3-7.1 1.2-2 1.8-2.2 1.8-5.3-.1l-3.3-1.9 2.3-3.7c3.4-5.3 6.6-6.3 13.7-4.9 10.1 2.1 11.1-.4 2.1-5.6-3.3-1.9-6.1-4.1-6.1-4.8.1-.8 1-3 2-4.9l2-3.7 14.2 8.3c7.9 4.6 14.6 8.3 14.8 8.3.3 0 2 1 3.8 2.3l3.2 2.3-2.4 4.3c-2.2 4-4.2 5.7-4.2 3.4 0-.4-1.9-1.7-4.1-2.8-2.3-1-5.3-2.7-6.7-3.7-2.4-1.8-2.6-1.8-2.6 1 0 1.6 2.1 5.4 5 9.1 2.7 3.6 4.6 7 4.2 7.7-.4.7-1.9 2.9-3.2 4.9l-2.6 3.7-2.7-3.3zm17.3-36.6c-4.9-1-5-1.2-3.6-6.3 1.3-4.3 1.4-4.3 5.1-3.2 3.1 1 4.1.8 6-.9 2.2-2 2.9-6.4 1.6-10-1-2.6-9.2-7.9-13.6-8.9-3.1-.7-4.2-.3-6.4 1.8-2.3 2.2-2.7 3.2-2.1 6.7.7 3.6.2 4.6-2.3 6.9l-3.1 2.9-2-3.3c-5.1-8.4.4-20.9 11-24.5 10.5-3.4 27.5 7.7 28.9 19 .6 4.3-1.3 12.2-3 12.2-.6 0-1.3 1-1.7 2.2-1.3 4-8.9 6.8-14.8 5.4zm22.8-33.1c-3.3-2.1-7.5-8-7.5-10.6 0-2.6 3.6-8.9 7.1-12.7l3.4-3.7-6.4-5.8-6.4-5.8 3.7-3.6 3.7-3.6 15 12.8c8.2 7 15.1 13.2 15.3 13.8.3.8-3.6 5.6-12.5 15.3-2.9 3.1-7.7 5.8-10.3 5.8-1.1.2-3.5-.8-5.1-1.9zm11.8-11.9c3.8-3.4 3.6-5.9-.7-8.2-3-1.6-3.2-1.6-5.9 1.7-6 7.4-.5 13.1 6.6 6.5zm9.1-28.9c-7.3-7.7-13.5-14.3-13.7-14.8-.1-.3 4.6-5.4 10.3-11.2l10.6-10.6 11.2 11.5c6.2 6.2 11.9 11.3 12.6 11.3.8 0 1.9-.6 2.7-1.3 1-1 1.9-.7 4.1 1.3 1.6 1.4 2.8 3 2.8 3.6 0 1.4-9 7.6-11.1 7.6s-8.8-5.4-16.5-13.6c-2.8-3-5.6-5.3-6.3-5.3-.7 0-2.6 1.3-4.1 3.1l-3 3 9.9 10.4c5.4 5.8 9.7 10.9 9.3 11.3-.3.6.2.7 1.1.3 1-.3 1.8-.2 1.8.3 0 1.3-5.9 7-7.3 7-.6.1-7.1-6.2-14.4-13.9zm42.2-20.6c-6.6-1.9-15.5-12.1-16.7-19-1.1-6 .1-11.2 3.7-15.1 3.7-4 10.8-8 14.6-8 4 0 12 4.2 14.6 7.6 1.2 1.7 2.7 3.6 3.2 4.2 4.2 5.2 5.9 14.8 3.3 19.6-2.3 4.4-6.9 8.6-11.1 10.2-4.9 2-6.7 2-11.6.5zm11.7-11c1.2-1.2 2.2-3.6 2.2-5.1 0-6.4-8.5-16-14.1-16-2.9 0-7 4.9-7 8.2 0 2.9 3 7.9 7.2 12.1 3.7 3.6 8.5 4 11.7.8zm423.6-10.4c-15-6.1-23-14.7-29.7-31.7-2.7-6.8-2.9-8.7-2.9-25.1 0-17.1.3-19.5 4-29.6 2.6-7 9.9-17 15.9-21.9 3.6-2.8 9.1-5.9 14-7.6 7.5-2.7 9.3-2.9 19.9-2.3 7.5.3 13.5 1.2 16.7 2.6 17.3 6.9 28.8 23 28.9 40.6 0 6.2-4.2 9.9-11.7 9.9-11.2 0-13-1.4-16.1-13.3-1.4-5.9-3.9-9.1-8.5-11.3-5.1-2.7-10.8-3.2-17-1.9-7.1 1.4-12 5.6-15.7 12.9-2.6 5-2.8 6.4-2.8 21.5 0 15.2.2 16.5 3 21.7 1.6 3.1 3.8 6.4 5 7.4 7.7 7 24.1 7 31.7.1 1.1-1 2.8-4.4 3.8-7.8 2.3-8.1 5.4-10.3 14.5-10.3 5.8 0 7.6.4 10 2.6 2.7 2.3 3 3.3 2.8 8.4-.4 14.9-11.5 29.2-26.6 34.9-7.1 2.6-9.8 3-20.6 3-10.4-.2-13.4-.6-18.6-2.8zm108.8.1c-8.7-3.1-15.9-8.9-22.6-17.7-8.5-11.2-10.9-19.3-11.5-37.4-.4-16.6.3-21.1 5.8-33 11.1-24 37.6-35.9 62.5-28.2 10.3 3.2 16 6.7 22.7 14 10.8 11.8 16.1 26.7 16 44.8-.1 28.1-13.2 49.5-35.2 57.7-9 3.3-28.5 3.2-37.7-.2zm30.8-24.6c4-1.7 11.1-9.2 11.7-12.3.1-.6.7-2 1.2-3 2-3.7 3-17.5 2-25.5-1.8-14.8-9-24.1-20.3-26.7-22.7-5-38.1 16.1-32.5 44.7 2.7 13.3 7.8 20 18 23.9 5.1 1.9 13.6 1.5 19.9-1.1zm-540 23.6c-.8-1.4-5.6-9.2-10.8-17.3-5.3-8.3-9-15.2-8.5-15.7.6-.6 3.2-2.2 6-3.8l5.1-3 8.8 8.9c4.9 4.9 9.2 8.9 9.7 8.9s-1.1-5.4-3.4-12.2c-3.1-8.8-4-12.5-3-13.1.7-.6 3.3-2.3 5.9-4l4.7-2.9 4.1 6.4c2.2 3.4 7.2 11.5 11.1 17.7l7 11.3-3.4 2.2-3.6 2.1-3.3-5.3c-1.9-3-5.7-9-8.5-13.5-2.7-4.3-5.1-7.4-5.2-6.9-.2.6 1.9 7.4 4.7 15.3l5.1 14.3-2.6 2c-1.4 1.1-3 2-3.4 2s-5.9-5-11.9-11.1c-10.6-10.4-13.5-13-11.6-9.7 5.9 9.8 13.3 21.8 14.7 23.3.9 1 1.4 2 1.2 2.2-1.9 1.3-6.6 4.1-7 4.1-.3.2-1.2-.9-1.9-2.2z" transform="matrix(.1 0 0 -.1 0 1000)"/><path class="st0" d="M2435.9 8580.4c-6.2-3.4-6.1-1.4-6.1-57.6v-51.7l2.6-3.2c2.2-2.7 3.7-3.3 8.7-3.8 7.6-.6 13.9 1.8 15.5 5.9.7 1.7 1.1 10.3 1.1 19.3 0 16 .1 16.5 2.8 19 1.6 1.4 2.9 2.4 3.1 2.1 4.8-6.8 10.1-13 10.9-12.6.6.3.9.1.8-.4-.6-2 23.6-31.3 26.6-32.6 3-1.1 15.1-.7 18.5.7 3.1 1.2 5.4 6.7 4.2 9.7-.6 1.4-10.3 14.2-21.7 28.5-11.3 14.1-20.7 26-20.7 26.3s4.7 5.4 10.5 11.5c27.9 28.9 27.4 28.2 25.2 33.9-2.2 5.7-14.5 8.2-22.7 4.8-3-1.2-20.2-18.1-33-32.5l-3.9-4.3-.6 16.5c-.6 15.9-.7 16.6-3.3 18.6-4.6 3.2-14.1 4.3-18.5 1.9zm314.4-.2c-2-1-4.1-3-4.7-4.7-.8-1.9-1.1-21.3-.9-54.5l.3-51.5 2.6-2.6 2.6-2.6 52.5-.3c35.8-.2 53.8 0 56.6.9 7.7 2.2 7.6 1.7 7.6 57 0 30.6-.4 50.6-1.1 52.6-1.6 4.3-4.3 5.9-12 6.7-5.4.6-6.9.3-10.2-2l-3.9-2.7-.3-43-.2-43h-20v41.8c0 26.5-.4 42.5-1.1 43.9-3.2 5.9-14.9 7.1-22.8 2.4-2.1-1.2-2.2-2.8-2.8-44.5l-.6-43.1-9.7-.3-9.8-.3v41.1c0 42.6-.2 45-4.7 47.8-3.6 2.3-13.2 2.8-17.4.9zm-551.3-30c-1.9-.8-4.4-3-5.8-4.7-1.3-1.8-3-3.9-3.6-4.7-2-2.2-4.4-10.2-4.4-14.3 0-9.6 7.5-17 18.1-17.9 5.1-.3 6.3 0 10.5 3 8.9 6.4 13.7 21 9.6 29-4.4 8.3-16.6 13.1-24.4 9.6zm14-10.7c3-3 2.8-7.2-.9-13.9-3.6-6.4-7.5-8.9-11.8-7.2-6.2 2.3-6.2 11.5 0 19.8 3.3 4.3 9.1 4.8 12.7 1.3zm27.1-6.6c-2.6-1.1-5.4-3.2-6.4-4.7-1.7-2.6-1.7-2.7 1.7-5.6l3.4-2.9 2.6 2.6c3.2 3.2 7.6 3.4 10.6.4 2.7-2.7 2.8-5.9.6-12.3-2.2-6.3-5.7-9.9-9.6-9.9-3.1 0-7.7 3.7-7.7 6.2 0 1.3-3.4 2.7-6.9 2.7-3.9 0-2.2-7.6 2.8-13.1 3.4-3.7 13.1-6.2 17.9-4.7 7.7 2.6 15.1 14.7 15.1 24.8 0 6.7-3.2 11.9-9 14.9-7.5 3.7-10 4-15.1 1.6zm30.9-28.7c-3.9-15.6-4.6-19.8-3.3-20.5 1.8-1.1 12-3.7 12.3-3.1.1.2 2.7 5.3 5.6 11.2 3 6 5.9 11.1 6.4 11.6.8.4.9-3.9.3-12.7l-.8-13.3 4.3-1.2c10.6-2.8 9.9-3 12 5.8 1 4.4 3.2 13.3 4.9 19.9l3.1 12-3.7 1.2c-2.1.7-4 1-4.2.8-.3-.2-2.2-7.3-4.2-15.8-4.6-18.3-5.7-17.6-4.6 3.3l.8 14.6-2.7.7c-1.4.4-3.3.8-4.1.8-.7 0-4.4-6.2-8.2-13.9-3.9-7.7-7.5-13.9-7.9-13.9-.6 0-.7.9-.2 2 1.3 3.2 7.5 28.1 7 28.5-.1.2-2.1.7-4.2 1l-3.9.8-4.7-19.8zm59.6 4.8c-4.6-2-8.2-7.7-9.8-15-2.3-11 .9-20.5 8.1-24 10.6-5.3 21-2.2 25.6 7.6 3.7 7.9 4.4 13.8 2.6 20.2-1.6 5.1-4.8 7.6-6.5 8.9-.7.4-.7.4-1.2.8-3 2.1-13 4.1-18.8 1.5zm14-9.1c2.8-2.7 3.3-7 2-13.7-1.4-6.8-2.8-8.6-6.9-9.6-2-.4-3.8 0-6 1.8-3 2.3-3.1 2.9-2.7 9.9.6 9.6 2.8 13.3 8.1 13.3 2.1.1 4.7-.7 5.5-1.7zm20.7 7.3c0-2.8 5.3-14.8 8-18.2 3-3.7 3.2-4.4 1.7-5.2-.9-.6-2.3-2.8-3-5-1-3-2.1-4-4.6-4.6-2.8-.6-3.2-1.1-3.2-4.2 0-4.1 1.6-4.9 7.8-3.9 3.4.4 4.2 1.3 7.2 7.2 4.7 9.2 6.8 9 6.2-.8l-.3-7.6h5.1c3.2 0 5.3.6 5.7 1.4.2.7.7 10 .9 20.6l.6 19.1h-9.4c-.6 0-1.1-3.6-1.2-8-.2-4.4-.7-8.3-1-8.7-1.1-1.2-4.9 5.1-6.8 11.2l-1.9 6.3-5.8.4c-3.3.5-6 .4-6 0z" transform="matrix(.1 0 0 -.1 0 1000)"/><path class="st0" d="M2367.6 9350.3c-36-2.6-85.7-14.6-123.1-29.8-25.8-10.5-62.4-30.3-79.3-43.1-1.6-1.1-8.6-6.4-15.6-11.7-17.9-13.3-32.7-26.8-54.5-49.8-11.2-11.8-40.8-50.5-43.3-56.6-.2-.6-3.3-5.7-6.8-11.2-5.6-9-18.9-35-25.4-49.5-5.8-13.1-14.2-38.6-20.8-62.8-1.8-6.8-6.7-33.4-8.2-45.6-6.3-48.9-3.6-103.7 7.9-149.5 5.2-21.1 12.8-45.2 18.3-58.4 1.6-3.7 3.6-8.4 4.4-10.6 3.7-8.6 12.2-25.6 17.9-35.6 3.3-5.8 7-12.1 8.1-14.1 6.6-11.7 25.1-37.6 26.6-37.2.7.1 1-.2.7-.8-1.8-2.8 38.3-45.2 60-63.8 12.9-10.9 35.9-27.6 48.3-34.9 4.6-2.7 11.1-6.7 14.5-8.7 3.3-2.1 6.9-3.6 7.8-3.2.9.3 1.2.2.8-.2-.8-.8.4-1.7 9.8-6.3 52.5-26.3 109.2-40.9 170.7-43.8l12.4-.6c1.4-.1 2.5 1.1 2.4 2.5l-.3 3.4c-.8 12.1 4.8 36.4 11.7 50.8 8.1 17 20 27.2 37.5 32.5 6.4 1.9 15.8 2 160.9 2.7 133.9.6 154.7.9 158.8 2.3 22.4 7.9 34.9 24.2 42.8 55.6 2.2 8.4 2.3 12.7 2.6 92.3.1 45.9 0 82.2-.2 80.6-1.8-10.6-8.1-30.6-11-34.5-.7-.9-1.9-3.1-2.8-4.8-2.7-5.4-13.2-16.1-19.2-19.6-3.2-1.8-9-4.3-12.9-5.6-7.1-2.3-8-2.3-158-2.3-131.3 0-151.6-.2-157.3-1.7-21.6-5.6-37-20.5-44.9-43.4-2.4-7.2-5.7-22.5-5.8-27.8v-3.3l-1.1 2.8c-.8 1.8-1 18.2-.7 45.6l.3 32.4c.1 6.9 1 13.8 2.8 20.5l.8 3c4.2 16.2 10.7 28.6 19.3 37.5 7 7.1 12.8 10.7 23.4 14.7 4.6 1.7 9.5 2.6 14.5 2.6l147.7.5 148.5.5c4.6.1 7 .8 10.9 2.1l2.1.7c3.4 1.3 8.1 3.5 10.7 5.2 0 0 9.5 5.6 15.3 14.1.1.3 3.2 4.7 3.2 4.7.1.2 3 5.4 3 5.4.2.5 3.8 7.9 5.2 12.3 4.9 14.6 6.3 24.7 6.3 45 0 42.1-11 95.3-28.8 139.5-8.3 20.5-20.2 44.1-31.8 62.8-8.7 14-28.8 41.9-35.7 49.5-1.7 1.9-5.4 6.1-8.3 9.4-25.2 28.7-61.5 58.8-94.7 78.6-14.8 8.8-16.1 9.4-26.9 15-18.1 9.3-49.7 22.3-61.7 25.5-1.8.4-7.8 2.1-13.3 3.7-15.9 4.7-33 8.3-52.8 11.3-16.2 2.6-22.2 2.9-52.8 3.2-19.3.3-37.6.3-40.9 0zm-136.8-106.5c27.1-3.3 54.9-9.8 81.7-18.7 11.6-3.9 31.9-11.6 34.8-13 1-.7 4.9-2.4 8.6-4 12.2-5.4 29.9-14.3 37.9-19 4.4-2.6 8.5-4.3 8.9-3.8 2.4 2.3 27.5 15 46.6 23.6 40.6 18.3 86.8 30.9 130.1 35.6 14.2 1.4 51 2 54.2.7 1.8-.8 1.9-9.1 1.7-138.2l-.2-137.5-25-.3c-33.1-.4-54.4-3.4-91.7-13-33.8-8.6-76.4-25.8-109-44.1l-7.8-4.4-6.7 3.7c-18.6 10.3-40.7 21.1-52.8 25.7-2.1.9-6.7 2.6-10 3.9-48.3 18.7-94.3 27.9-140.3 28.2l-24.2.1v137.4c0 108.3.3 137.6 1.4 138.7 1.6 1.8 42.2.9 61.8-1.6zm-69.4-44.2c.2-.3.4-53 .4-117.2s.4-117.1.9-117.7 9.6-1.1 23-1.1c39.9-.1 82.4-7.7 127.9-22.7 11.8-3.9 17.2-5.9 37.8-14.1 4.3-1.7 17.3-7.9 29-13.8l21.2-10.7 18.8 9.6c23.1 11.7 39.9 18.9 63.7 27.2 45.7 16 104 26.1 142.8 24.8l14.1-.6v236.2l12 .6c6.6.3 16 .3 21.1 0l9.1-.6v-138.2c0-76-.3-138.3-.7-138.3-.3 0-3.6.8-7 1.6-18 4.7-50.5 8.7-81.8 10.1-20.9.9-61-1.8-81.7-5.7-37.1-6.8-69.1-17.1-98.9-32l-12.3-6.2-6.2 3.3c-3.4 1.8-6.8 3-7.6 2.6-.7-.3-.9-.2-.3.2 1 1.2-6.7 5.1-19.7 10-5.6 2.1-10.9 4.3-11.8 4.8-2.8 1.7-30 9.8-40.6 12.3-40.5 9.3-88.2 12.7-130.7 9.1-16.8-1.4-53.4-7.1-58.4-9-6.6-2.6-6.1-13.5-6.1 137.2v138.4l3.1.6c3.6.5 38.1 0 38.9-.7zm-47.2-160.8l.3-122.2 8.3 2c4.6 1.1 11.9 2.6 16.1 3.1 4.3.7 12.8 1.9 18.9 2.8 31.7 4.8 88.3 4.6 119.5-.4 7.7-1.2 15.7-2.6 17.8-2.9 12.7-1.9 40.5-9.2 56.6-14.9 19-6.7 21.2-7.7 40.3-16.6l9.6-4.4 9.1 4.3c28.6 14.1 72.3 28.1 98.6 31.7 3 .4 9.5 1.4 14.3 2.3 15.3 2.7 34.6 3.9 63.4 3.8 36.5 0 57.5-1.9 85.1-7.4 4.6-.9 10.2-2.1 12.6-2.6l4.1-.8v244.3l9.2-.7c5-.4 13.1-1.6 18-2.6l8.9-1.8v-136.2c0-146 .3-137.4-5-135.4-1.9.8-13.7 4.2-25 7.3-19.1 5.3-46 10.5-75.7 14.2-21.1 2.8-26.5 3-59.4 3-20.5 0-40-.6-45-1.2-32-4.4-51-8.6-70.1-14.9-10.6-3.6-23.1-8.2-26-9.8-6.6-3.6-16-7.8-17.1-7.8-1.2 0-12.9 5.1-17.9 7.9-2.3 1.3-7.7 3.2-27.8 10-54.6 18.2-127.5 21.1-203 8-23.2-4-47.3-9.7-63.9-14.9-5.4-1.8-10.3-3.2-10.8-3.2-.6 0-.9 61.5-.9 136.6V9156l10.3 1.8c9.8 1.7 14.8 2.3 22.7 2.7l3.7.2.2-121.9z" transform="matrix(.1 0 0 -.1 0 1000)"/><path d="M2792.3 8710.5c-7.8-6.4-19.7-15.2-36.3-15.3-76.2-.4-179.8-.6-241.6-.7-16.8 0-46.2 1-59.2-1.3-31.9-5.6-45.6-33.5-54-75.8 0 11 .2 43.8.2 74.7 0 44.3 19.4 64.4 27.3 72.4 6.3 5 20.4 12.9 31.9 12.9 21.1 0 191.1 2.3 300 1.1 3.8 0 17.6 3.9 28.1 12.8 8.8 7.4 12.9 15.6 16.4 22.6 3.9 7.9 9.6 22.3 10.1 42.2v-87.7c.1-21.8-5.2-36.9-22.9-57.9z" fill="red" transform="matrix(.1 0 0 -.1 0 1000)"/></g></g></switch></svg>